<svg width="149" height="166" viewBox="0 0 149 166" fill="none" xmlns="http://www.w3.org/2000/svg">
<path d="M91.9165 141.618C90.4426 140.611 89.098 139.413 87.7509 138.243C83.5461 134.472 79.5984 130.424 75.7346 126.306C72.1233 122.458 68.5572 118.55 65.3914 114.32C60.487 107.698 56.49 100.446 53.1041 92.9462C52.0712 90.6325 50.966 88.3515 50.0978 85.9689C49.6584 84.8352 49.2206 83.7027 48.7811 82.569L47.5686 78.6012C46.6777 75.8492 46.1 73.0143 45.3906 70.213C44.9153 67.3569 44.3234 64.5169 43.9923 61.6385C43.7041 59.2336 43.3133 56.8397 43.1985 54.4183C43.0405 51.9069 42.7967 49.4008 42.8418 46.8814C42.8198 44.3626 42.7921 41.8448 42.977 39.3308C43.0345 38.2587 43.0903 37.1853 43.1461 36.112L43.7235 31.5962C44.5128 25.8679 45.4435 20.1283 47.3302 14.6434C48.2825 11.86 49.1795 9.04982 50.3163 6.33455C50.8869 5.07955 51.4656 3.78439 52.3616 2.72662C53.1791 1.78922 54.3515 1.2263 55.5342 0.896009C55.1287 2.67612 54.0577 4.17161 53.1696 5.73407C52.0104 8.00078 51.2457 10.4399 50.405 12.8349C49.4654 15.4431 48.1894 19.5738 47.8471 21.2943C46.7282 26.2439 46.1138 31.2912 45.4677 36.3183C45.3498 38.3914 45.2491 40.4692 45.1358 42.543C45.1433 44.7418 45.1555 46.9413 45.1659 49.1396C45.323 51.466 45.4744 53.7933 45.6373 56.1187L46.5389 63.2421C46.8986 65.3322 47.2665 67.418 47.6292 69.5076C48.1061 71.7098 48.6941 73.8892 49.2129 76.083C49.7793 77.9347 50.3415 79.7885 50.912 81.638C52.1205 84.8094 53.3397 87.9731 54.7979 91.0393C58.3599 98.988 61.9021 105.525 66.7595 112.277C70.1374 116.831 73.9576 121.028 77.8375 125.153C81.4301 128.987 85.7732 133.375 88.9739 136.235C90.3767 137.524 91.8547 138.725 93.2859 139.978C94.1672 140.967 94.3141 141.285 94.9502 142.488C93.5779 142.335 93.133 142.254 91.9126 141.613L91.9165 141.618Z" fill="#FFC93D"/>
<path d="M108.381 156.952C107.911 157.331 107.388 157.08 107.021 156.713C105.585 155.827 104.043 155.118 102.521 154.383C100.124 153.261 98.4435 152.531 95.7389 151.702C93.529 151.051 91.2864 150.498 89.0305 149.998C87.8758 149.75 86.7008 149.577 85.5591 149.283C84.2737 148.939 83.0233 148.488 81.8105 147.959C82.0814 147.932 82.3511 147.911 82.6208 147.891C82.4183 147.84 82.2193 147.779 82.0248 147.708C81.9015 147.653 81.8116 147.547 81.7661 147.421C81.5555 147.353 81.3427 147.291 81.132 147.228C81.1523 147.226 81.1727 147.225 81.193 147.221C81.3731 147.199 81.5551 147.183 81.7359 147.171C81.7486 147.063 81.7954 146.959 81.882 146.877C81.8919 146.867 81.9028 146.861 81.9127 146.851C81.5646 146.738 81.2187 146.623 80.8729 146.506C81.3287 146.435 81.7861 146.387 82.2419 146.354C82.2202 146.255 82.2167 146.152 82.2388 146.054C81.7593 146.091 81.2803 146.112 80.8023 146.1C81.5862 145.762 82.3531 145.38 83.1459 145.065C83.7401 144.825 84.3452 144.615 84.9481 144.404C85.0001 144.38 85.051 144.354 85.103 144.33C85.4541 144.189 85.8144 143.949 86.1983 144.039C86.2248 144.046 86.2502 144.057 86.2745 144.066C87.377 143.6 88.5123 143.22 89.6522 142.867C90.7392 142.495 91.8243 142.117 92.9035 141.722C92.9249 141.458 92.9495 141.195 92.9794 140.933C93.1519 139.386 93.3797 137.843 93.6129 136.301C93.9 134.405 94.2278 132.504 94.8092 130.66C94.9875 130.025 95.8537 129.722 96.3132 130.196C96.5595 130.43 96.6306 130.783 96.7584 131.091C96.9774 131.686 97.1953 132.281 97.4207 132.874C98.3234 135.21 99.0308 137.096 100.166 139.699C101.298 142.223 102.54 144.694 103.753 147.178C104.607 148.924 105.407 150.697 106.323 152.41C106.929 153.516 107.584 154.748 108.165 155.414C108.329 155.529 108.481 155.659 108.598 155.824C108.817 156.173 108.747 156.702 108.381 156.952ZM91.584 148.98C91.9456 149.069 92.3072 149.156 92.6699 149.244C92.5915 149.222 92.5142 149.199 92.4358 149.176C90.1146 148.533 87.7327 148.11 85.3402 147.753C85.2234 147.731 85.1066 147.708 84.9898 147.684C84.9829 147.741 84.9685 147.796 84.9466 147.851C85.3338 147.867 85.7206 147.894 86.1059 147.937C87.9563 148.169 89.7702 148.589 91.585 148.981L91.584 148.98ZM101.482 146.434C100.508 144.434 99.5162 142.443 98.6178 140.405C97.6526 138.199 96.7903 135.945 95.9214 133.696C95.8836 133.599 95.848 133.501 95.8112 133.404C95.3785 135.353 95.1833 137.096 94.8459 139.407C94.7527 140.126 94.6617 140.845 94.5962 141.566C94.5545 142.163 94.5762 142.785 93.9311 143.088C93.6169 143.247 91.7208 143.905 90.6724 144.269C89.766 144.597 88.8469 144.886 87.9101 145.083C86.6858 145.551 85.782 145.937 84.6792 146.338C85.1121 146.361 85.5457 146.396 85.9758 146.443C85.9896 146.444 86.0035 146.442 86.0174 146.443C88.1871 146.524 90.3145 146.96 92.428 147.362C94.161 147.699 95.836 148.237 97.4871 148.826C99.772 149.619 101.961 150.631 104.076 151.775C103.193 150.004 102.368 148.204 101.481 146.435L101.482 146.434Z" fill="#FFC93D"/>
</svg>
