<svg fill="none" height="21" viewBox="0 0 21 21" width="21" xmlns="http://www.w3.org/2000/svg"><g stroke="#000" stroke-linecap="round" stroke-linejoin="round"><path d="m10.5838 19.9595s7.5838-3.7919 7.5838-9.4797v-6.63589l-7.5838-2.84391-7.5838 2.84391v6.63589c0 5.6878 7.5838 9.4797 7.5838 9.4797z" stroke-width="1.83331"/><path d="m10.5849 5.53381v9.89189m2.4728-8.40816h-3.70938c-.4592 0-.89946.18238-1.2241.50702-.32465.32465-.50703.765-.50703 1.2241s.18238.8994.50703 1.224c.32464.32474.7649.50704 1.2241.50704h2.47288c.4591 0 .8994.1824 1.2241.5071.3246.3246.507.7649.507 1.224s-.1824.8994-.507 1.2241c-.3247.3246-.765.507-1.2241.507h-4.20401" stroke-width=".956509"/></g></svg>