<svg fill="none" height="23" viewBox="0 0 23 23" width="23" xmlns="http://www.w3.org/2000/svg"><g stroke="#000" stroke-linecap="round" stroke-linejoin="round" stroke-width="1.77131"><path d="m10.0141 19.6357 9.1591-9.1592c.428-.4194.7686-.91951 1.0021-1.47138s.3553-1.14456.3583-1.74379c.0031-.59923-.1127-1.19311-.3407-1.74732-.2279-.5542-.5634-1.05772-.9871-1.48144-.4238-.42373-.9273-.75925-1.4815-.98717s-1.1481-.34372-1.7473-.34069-1.1919.12481-1.7438.35832-1.052.5741-1.4714 1.00208l-9.15915 9.15919c-.42799.4194-.76858.9195-1.00208 1.4714-.23351.5518-.3553 1.1445-.35832 1.7438-.00303.5992.11276 1.1931.34068 1.7473s.56345 1.0577.98717 1.4814c.42373.4238.92725.7593 1.48145.9872s1.14809.3437 1.74732.3407 1.19192-.1248 1.74379-.3583 1.05198-.5741 1.47144-1.0021z"/><path d="m8.18262 8.64471 6.41138 6.41139"/></g></svg>