<svg fill="none" height="20" viewBox="0 0 21 20" width="21" xmlns="http://www.w3.org/2000/svg"><g stroke="#000" stroke-linecap="round" stroke-linejoin="round" stroke-width="1.77131"><path d="m16.8704 11.9129c1.3647-1.3372 2.7477-2.94009 2.7477-5.03753 0-1.33604-.5307-2.61736-1.4754-3.56208-.9448-.94472-2.2261-1.47546-3.5621-1.47546-1.612 0-2.7478.45796-4.1216 1.83183-1.37391-1.37387-2.50965-1.83183-4.12166-1.83183-1.33604 0-2.61735.53074-3.56207 1.47546-.94473.94472-1.47547 2.22604-1.47547 3.56208 0 2.1066 1.37388 3.70943 2.74775 5.03753l6.41145 6.4114z"/><path d="m10.4595 3.66965-2.7111 2.71111c-.1861.18474-.3338.40449-.43459.64657s-.15268.50171-.15268.76394c0 .26222.05189.52186.15268.76394s.24849.46182.43459.64657c.75105.75105 1.9509.77853 2.7477.06411l1.896-1.74024c.4752-.43121 1.0939-.67009 1.7357-.67009.6417 0 1.2604.23888 1.7356.67009l2.7111 2.43634"/><path d="m15.9539 12.8288-1.8318-1.8318"/><path d="m13.2068 15.5766-1.8318-1.8318"/></g></svg>