<svg viewBox="0 0 1837 1140" xmlns="http://www.w3.org/2000/svg"><g fill="none" stroke-width="2"><path d="m1359.49 148.81.01.4q.02.37.34.56l7.29 4.23q.21.12.09.33l-.22.37a.34.34 0 0 1 -.62-.06l-.19-.56a.22.22 0 0 0 -.42.04q-.24 1.88-2.26 2.64-9.25 3.48-14.8 5.24c-2.11.67-4.14 2.09-6.4 2.75-9.94 2.88-19.5 7.55-29.35 10.54-3.85 1.17-7.55 3.34-11.64 4.48q-3.52.97-5.58 1.86c-5.41 2.31-11.41 3.73-16.33 5.97-2.55 1.16-5.48 1.41-8.03 2.61-6.22 2.92-12.66 4.63-18.98 7.27-3.07 1.29-6.49 1.97-9.71 3.33-6.97 2.95-13.85 5.08-20.89 7.46-3.21 1.09-6.76 3-10.33 4.12-14.51 4.55-28.87 11.12-42.95 15.46-2.91.9-5.69 2.59-8.78 3.48q-4.6 1.33-6.64 2.17c-5.93 2.43-12.88 3.97-18.91 7.07q-1.22.62-4.09 1.38c-5.08 1.34-9.73 3.64-17.59 6.09-2.32.72-4.27 2.24-6.85 2.84q-3.66.84-7.13 2.4a1.06 1.04 42.2 0 1 -.8.03q-1.68-.61-2.05.74a1.19 1.17-1 0 1 -.8.82q-7.22 2.13-14.13 5.11-1.36.59-3.64 1.11c-3.09.7-6.48 2.68-8.9 3.43-10.64 3.26-21.39 8.05-31.05 11.34-4.06 1.38-7.23 2.73-12.02 4.12-2.8.82-5.46 2.38-7.9 3.21-4 1.35-7.56 2.35-11.74 4.28q-3.96 1.84-8.24 2.79c-4.34.97-10.53 5.72-15.51 5.73q-13.28.04-26.56-.07-.13 0-.14.21 0 .17.17.17l36.82.14" stroke="#f9b522"/><path d="m992.04 296.44-102.89.4q-.56 0-.57.57l-.57 74.45" stroke="#fddd91"/><path d="m888.01 371.86q-4.19 1.03-7.98 2.89c-2.8 1.36-5.73 1.45-8.58 2.74-5.75 2.6-11.65 4.3-17.45 6.74-4.38 1.83-9.84 2.81-14.51 5.59a1.3 1.29 31.3 0 1 -.76.18q-3.6-.31-6.24 2.14-.36.34-.84.46-1.89.49-1.52 2.32.07.32-.22.46-.54.27-.78 1.39" stroke="#f7ae21"/><path d="m829.13 396.77q-6.44-37.75-12.6-75.52-.64-3.94-1.42-7.85c-1.06-5.32-1.02-11.57-2.89-17.39q-.16-.51-.7-.51h-114.52q-.71 0-.91.68-16.89 57.5-33.73 114.73c-5.12 17.41-8.65 33.52-10.69 50.92a1.15 1.15 0 0 1 -2.25.17l-7.67-28.29q-.06-.21-.17-.4-.11-.18-.16-.39-1.89-8.42-4.15-16.74-14.99-55.16-29.83-110.36-.09-.33-.01-.65c.08-.34.12-.65.02-1q-1.23-4.07-2.43-8.1-.16-.57-.76-.57h-116.27q-.54 0-.63.53l-40.61 245.49" stroke="#fddd91"/><path d="m446.75 541.52q-.95-1.89.19-4.2a.83.82 42.2 0 0 -.04-.78q-.67-1.1-.48-2.44a1.01 1-6.4 0 0 -1.35-1.07l-15.46 5.78q-.5.18-1.03.15c-1.84-.11-3.42 1.39-4.45 1.75q-7.94 2.77-15.8 5.8c-3.1 1.2-6.97 2.03-10.37 3.5q-5.6 2.41-7.57 3.06c-3.2 1.04-8.77 2.36-11.21 4.59a1.22 1.18 24.2 0 1 -.86.31q-2.91-.14-5.49 1.11c-6.77 3.27-13.98 5.15-20.88 8-2.12.88-4.69 1.12-6.99 2.13-7.6 3.31-15.59 5.93-23.43 8.63-3.06 1.05-6.94 3.26-10.83 3.99-3 .57-6.65 2.62-8.56 3.26-7.07 2.35-14.64 5.63-20.89 7.76q-6.6 2.26-13.23 4.44-3.06 1.01-5.21 3.29-.32.34-.58-.05l-1.53-2.37" stroke="#f9b522"/><path d="m1454.51 210.73.39 1.44q.15.52.69.58.92.1.4.8-.14.18-.36.13l-.96-.23a.32.32 0 0 0 -.35.47l.19.32q.25.43-.2.62c-3.87 1.64-8.29 2.6-12 4.38-4.09 1.96-8.29 3.11-12.54 4.6-2.77.97-5.95 2.78-9.19 3.69-9.16 2.57-17.9 6.71-27.01 9.47q-1.9.57-3.71 1.39c-5.79 2.61-11.9 4.25-17.79 6.66-4.15 1.69-9.74 2.87-14.34 5.52a1.65 1.63-57.1 0 1 -.94.21c-2.68-.27-4.68 1.51-6.35 2.09-3.24 1.12-6.01 2.33-9.58 3.3-4.3 1.17-7.81 3.57-12.19 4.59-6.17 1.44-12.5 4.71-18.67 6.65-2.52.79-4.8 2.37-7.54 3.18-4.76 1.38-7.94 2.78-12.01 4-4.19 1.27-8.08 3.41-12.33 4.7-6.83 2.07-13.29 4.95-20.11 7.12-3.09.99-6.8 3.23-10.81 3.72q-.91.11-1.37 1.46-.11.35.25.31 6.72-.74 13.45-.21.18.01.31-.06.29-.17.32-.47a.23.23 0 0 1 .34-.18l.25.15q.23.14.5.11l5.93-.59a.14.14 0 0 1 .06.27q-.13.05-.27.09-.76.21.01.38l4.25.91q.11.02.13.14l.05.3q.08.44.52.4 2.89-.25 5.01.69" stroke="#f6a920"/><path d="m1276.94 293.83c-9.9-.44-18-.88-28.94-.36q-47.19 2.25-85.29 30.5" stroke="#fbd790"/><path d="m1162.71 323.97.09-.88q.14-1.27-1.11-1-6.84 1.44-12.22 4.11c-3 1.49-5.77 1.61-8.19 2.67q-6.48 2.82-13.24 4.9c-2.94.91-5.8 2.63-8.93 3.62q-6.5 2.05-6.6 2.09c-16.03 6.02-29.09 10.16-42.58 15.62-4.28 1.73-9.32 3-13.91 5.07-5.7 2.58-11.84 4.25-18.17 6.37-3.67 1.23-7.03 3.18-11.36 4.28-5.38 1.36-10.54 4.03-15.9 5.72-3.75 1.17-6.73 3.61-11.44 3.53q-.15 0-.15.15 0 .12 0 .25 0 .09-.08.13l-5.42 2.81a.16.16 0 0 1 -.22-.18q.08-.34-.1-.47-.3-.22-.38.15l-.49 2.34" stroke="#f6a920"/><path d="m992.31 385.25-.27-88.81" stroke="#fbd790"/><path d="m887.97 538.25-.46-31.17q-.01-.43-.44-.48c-4.9-.48-7.37 2.06-11.81 3.69q-7.68 2.82-15.52 5.18-3.84 1.16-7.36 3.14-.5.28-.6.85-.12.74-.86.39-.77-.37-.8-.39l-.42-.45" stroke="#f39d1e"/><path d="m992.31 385.25-.12 118.03" stroke="#fad18f"/><path d="m992.19 503.28-.25 28.94q-.01 1.37 1.31 1.72.89.23 2.75.24c25.94.19 51.86.25 77.8-.34q13.07-.3 26.14-.05" stroke="#f9cb8e"/><path d="m1099.94 533.79-.22 81.56" stroke="#f6c18d"/><path d="m1099.72 615.35-165.22-.06" stroke="#f7c68e"/><path d="m934.5 615.29-18.89-.3q-.02 0-.03.03-.04.12-.08.25a.27.25-82.8 0 1 -.25.21l-26.59.11q-.67.01-.67-.66l-.02-76.68" stroke="#f9cb8e"/><path d="m887.97 538.25.04-166.39" stroke="#fad18f"/><path d="m829.13 396.77 20.57 122.24" stroke="#fad18f"/><path d="m849.7 519.01 15.96 95.03q.13.76-.64.77l-108.26.27q-1.3 0-1.42-1.3l-15.67-172.55a.53.53 0 0 0 -1.05-.08c-1.33 5.22-1.94 10.86-3.26 15.67q-2.76 10.03-3.69 12.86-23.77 72.46-47.6 144.78a.67.66-80.9 0 1 -.63.46l-38.94.23" stroke="#f9cb8e"/><path d="m644.5 615.15-30.14-.56q-.53-.01-.68-.51-18.95-60.9-38.16-121.72c-5.07-16.07-9.82-33.6-10.93-49.84q-.07-1-.47-1.45-.67-.76-1.79-.25a.98.96-10.5 0 0 -.57.81c-4.25 57.56-10.82 115.03-16.63 172.47q-.05.51-.57.52l-79.79.36" stroke="#fad18f"/><path d="m464.77 614.98-29.67.06a.51.5 4.4 0 1 -.5-.58l12.15-72.94" stroke="#fbd790"/><path d="m1100.62 442.75q.21-2.16-.9-3.53-.36-.45-.04-.94l.59-.87a.73.73 0 0 0 -.74-1.13q-4.38.84-8.59 2.5c-6.67 2.63-10.97 4.15-16.63 6-2.21.72-4.23 2.2-6.72 2.92-7.93 2.3-15.69 5.41-23.44 8.26-8.08 2.97-16.42 5.62-24.4 8.86-5.15 2.09-10.87 3.64-16.16 6-2.33 1.04-5.25 1.28-7.8 2.9q-1.71 1.09-1.78-.93l-.23-6.24a.29.29 0 0 0 -.58 0l-1.01 36.73" stroke="#f39d1e"/><path d="m1403.89 372.52 3.09 5.76q.24.45-.22.68l-79.53 39.59a1.27 1.26 64.7 0 1 -1.72-.62c-12.3-28.15-30.08-50.46-63.83-49.61-38.33.96-58.79 32.31-62.15 67.19-2.1 21.72-1.02 44.82 6.5 64.77" stroke="#f9cb8e"/><path d="m1206.03 500.28c7.24 21.09 23.23 37.36 45.61 40.89 10.59 1.67 21.98.98 31.85-2.58q.47-.17.97-.1c1.04.16 1.63-.57 2.41-.9 19.41-8.23 31.7-25.6 37.98-45.14a.76.75-68 0 1 1.05-.45l58.58 28.52" stroke="#f7c68e"/><path d="m1384.48 520.52 22.83 11.04q.47.22.23.68c-12.99 24.7-27.29 44.51-51.12 60.18-13.98 9.19-29.46 16.35-45.6 20.79-58.72 16.13-123.98 6.11-167.73-38.65-13.88-14.2-23.91-31.54-31.19-49.77" stroke="#f6c18d"/><path d="m1111.9 524.79q-14.94-39.72-11.28-82.04" stroke="#f9cb8e"/><path d="m1100.62 442.75c4.38-46.83 25.14-89.28 62.09-118.78" stroke="#fad18f"/><path d="m1555.07 315.15-1.98.35q-.44.08-.73.43-1.3 1.56-3.37 2.06-5.9 1.44-11.44 3.92c-2.15.96-4.5 1.23-6.77 2.27-5.22 2.42-10.54 4-15.97 5.85-1.84.63-3.63 2.02-5.76 2.59-5.13 1.38-9.61 3.62-14.7 5.07q-4.05 1.15-7.92 2.83c-3.32 1.43-7 2.03-10.42 3.58-5.79 2.62-11.1 3.99-16.61 6.31-3.89 1.64-7.99 2.67-11.98 4.25-6.75 2.67-13.86 5.67-20.58 7.43-2.97.78-5.58 2.56-8.38 3.29q-6.71 1.76-12.85 5.05-.33.18-.56.48-.45.62-.17.86a.3.21 70.8 0 1 -.14.49l-.29-.17q-.32-.19-.43.16-.05.14-.13.27" stroke="#f39d1e"/><path d="m1403.89 372.52c-25.93-46.17-74.74-73.5-126.95-78.69" stroke="#fad18f"/><path d="m934.5 615.29q-4.43.06-10.74.96c-4.54.65-10.19-.1-13.94-.07q-8.3.08-16.6.29-.54.01-.9.41-.57.64-1.52.36-.5-.14-.79.3c-1.66 2.61-5.45 2.53-8.1 3.77-5.82 2.73-11.85 4.4-17.78 6.85-3.52 1.46-7.74 2.3-11.5 4.01q-3.54 1.62-6.51 2.48c-4.3 1.24-8.29 3.46-12.63 4.39-3.1.66-5.92 2.67-8.51 3.45-6.37 1.91-12.46 4.84-18.79 6.64-4.28 1.22-8.49 3.5-12.27 4.58q-8.07 2.33-10.49 3.73-2.64 1.54-4.71 1.54-.49 0-.92.23c-5.04 2.66-11.02 4.05-15.64 5.93q-6.35 2.6-12.94 4.59c-2.41.73-4.79 2.34-7.43 3q-3.29.82-4.97 1.59c-5 2.28-10.36 3.69-15.39 5.78-4.39 1.81-8.78 2.75-13.18 4.8-3.18 1.49-6.52 1.95-9.66 3.28q-2.17.92-4.44 1.62c-2.1.65-3.67 2.36-6.44 2.18a1.9 1.9 0 0 0 -.95.19c-10.92 5.34-22.93 8.35-33.9 12.98q-2.28.97-6.34 2.18c-3.5 1.04-6.38 3.07-10 3.62-3.17.49-6.94 2.72-8.97 3.39q-3.56 1.16-7.12 2.33c-2.82.92-5.72 2.65-8.79 3.62-9.86 3.1-19.84 7.4-26.89 9.47q-2.89.85-4.75 1.63c-6.15 2.59-12.43 4.56-18.61 7.04-3.66 1.47-8.77 2.46-12.8 4.57-4.92 2.57-10.25 2.97-15.7 6.57a1.17.12-4.9 0 1 -.89.17q-.12.01-.25-.01-1.03-.18-.07.6l.48.39q.34.28-.04.49-.17.09-.37.12" stroke="#f1921d"/><path d="m1627.74 515.75q-.46-.69-1.02.63-.31.75-.59-.01c-1.43-3.97-9.97.51-12.52 1.32q-2.41.75-6.61 2.29-70.67 25.91-141.41 51.6c-1.7.62-4.97 1.53-7.34 2.66-2.12 1.02-4.25 1.26-6.4 2.17q-4.27 1.8-4.33 1.82-25.56 9.08-51 18.48-5.03 1.86-10.1 3.81-.45.18-.67.6-.31.58-.99.44-.49-.11-.97.05-12.28 3.95-24.36 8.46c-2.25.84-3.91 1.33-6.41 2.65-1.72.9-3.63.87-5.28 1.57-7.18 3.02-14.68 5.18-21.79 8.24q-1.09.47-2.88 1.04c-10.22 3.26-23.78 8.94-39.34 14.14-4.09 1.36-9.01 3.54-12.09 4.64q-35.35 12.64-70.56 25.66c-1.55.58-3.69.95-5.41 1.76q-3.15 1.47-3.87 1.72c-18.29 6.31-36.34 13.25-54.53 19.76q-28.47 10.19-56.82 20.7c-11.52 4.27-23.81 8.8-35.77 12.88-7.99 2.73-17.71 6.59-23.79 8.75q-30.81 10.95-61.29 22.75c-3.58 1.38-7.97 2.41-11.85 3.85-7.68 2.87-15.19 5.47-22.71 8.39-4.95 1.92-17.05 4.78-19.05 9.33q-.2.45-.66.63c-5.42 2.13-12.55 1.2-18.35 1.24q-.19 0-.22.18-.03.15.01.28" stroke="#e77d1a"/><path d="m637.5 765.96q1.14-.51 1.15-1.59 0-.37.37-.37h.46a.34.34 0 0 0 .29-.16q1.81-2.86 5.75-3.84 6.41-1.6 13.96-4.8c3.14-1.33 6.71-2.01 10.03-3.43 5.05-2.16 9.8-3.42 14.47-5.64 2.74-1.31 5.44-1.42 8.32-2.69q4.91-2.16 5.98-2.5c5.66-1.79 11.29-4.32 17.06-6.13q3.79-1.19 7.16-2.63c5.04-2.14 10.46-3.31 15.34-5.76q1.81-.92 3.99-.85a1.94 1.9-56.9 0 0 .95-.21c5.79-2.98 12.35-4.79 17.95-7.04q5.28-2.12 10.77-3.7c2.7-.77 4.88-2.49 7.73-3.31 5.45-1.57 9.75-3.5 14.79-5 10.03-2.97 19.72-7.88 29.71-10.79 2.6-.76 4.78-2.41 7.52-3.21 7.97-2.34 15.75-5.43 23.57-8.22 7.44-2.65 14.53-5.73 21.97-7.92 2.75-.82 5.49-2.69 8.62-3.3 4.6-.89 8.65-3.33 13.12-4.77 5.33-1.73 10.42-4.05 15.85-5.46 2.94-.76 5.27-2.82 8.13-3.39q2.67-.53 4.85-1.41c5.27-2.12 10.65-3.91 16.02-5.78 2.1-.74 4.63-2.33 7.08-2.95q3.76-.95 5.23-1.58c6.12-2.63 12.11-4.35 18.59-7.08 4.34-1.83 8.68-2.7 12.85-4.96 2.02-1.08 4.18-.53 6.4-1.81 3.71-2.14 7.72-3.05 11.77-4.36 9.04-2.95 17.99-6.9 26.82-10.06 1.1-.4 1.34-.98 2.04-1.83q.38-.47-.23-.49l-13.93-.43q-.4-.02-.07-.21c.32-.19 3.24-.04 4.77-.08q.42-.01.12-.21-.11-.07-.31 0-.42.15-.79-.06-.4-.24.06-.24l75.94-.36" stroke="#ee881b"/><path d="m1099.94 533.79-11.6-.23a1.26 1.26 0 0 1 -.41-2.44l20.1-7.47q.39-.15.79-.11.61.05.86-.56.09-.23.34-.23h.48a.46.46 0 0 1 .46.49q-.08 1.28.94 1.55" stroke="#f08d1c"/><path d="m644.5 615.15c-4.53-.15-8.9 1.15-13.01 1.12q-5.72-.04-11.44.01-.08 0-.02.06l.27.23q.16.13-.02.25c-1.58 1.06-2.46 2.18-4.35 2.76q-3.45 1.06-6.86 2.27c-2.01.72-4 2.13-6.35 2.81-7.43 2.13-14.61 5.1-21.93 7.59q-.46.16-.8.5-.54.55-1.76.77-3.74.68-9.19 2.98c-5.46 2.31-11.08 3.84-16.49 6.2-7.05 3.09-15.98 5.67-27.94 10.27q-1.03.39-3.18.9c-2.71.63-5.92 2.45-7.68 3.06-4.31 1.48-8.9 2.64-12.91 4.83-2.39 1.3-4.88 1.01-7.08 2.06-6.9 3.3-14.53 5.34-21.43 8.11-2.49 1-5.7 1.53-8.46 2.88-5.71 2.77-11.8 4.15-17.63 6.68q-2.21.96-4.57 1.56c-3.81.96-6.25 2.59-9.54 3.46-5.02 1.34-9.49 3.54-14.37 5.18-6.29 2.11-12.51 5.03-19.03 6.96-2.59.77-4.82 2.43-7.62 3.25-9.47 2.79-18.75 6.53-28.04 9.89q-.37.13-.44.51-.06.38-.92.79" stroke="#f39d1e"/><path d="m289.89 666.74 1.52.03q.33.01.48.29.56.99 1.06 1.94.31.59.88.26 6.64-3.83 13.9-6.11c5.74-1.8 10.88-4.11 16.49-5.73 3.27-.95 6.21-3.16 10.1-3.51 1.71-.16 2.89-1.58 4.67-2.05 2.74-.72 5.04-2.11 7.79-2.75q3.84-.9 8.03-3.06c3.08-1.58 6.68-1.8 9.91-3.51 4.58-2.44 9.52-3.47 14.28-5.38 5.21-2.09 10.35-3.24 16.11-5.81 2.66-1.19 5.83-1.54 8.63-2.92 5.97-2.95 12.43-4.45 18.57-7.09 3.17-1.36 7.25-1.99 10.67-3.94q.41-.24.66-.64.5-.8 1.56-.43c1.8.63 4.1-.44 6.06-.27q5.11.42 10.23.04c1.75-.13 4.12-1.24 6.01-.86q4.67.94 7.27-.26" stroke="#f6a920"/><path d="m1581.15 353.57q-25.96 8.79-52.03 18.34c-14.04 5.14-25.28 9.37-37.92 14.03-1.68.62-4.06 1.04-5.92 1.92-9.47 4.49-19.5 6.09-29.7 11.12-2.59 1.28-5.36 1.45-8.09 2.58-5.35 2.2-8.4 3.24-12.74 4.75-3.93 1.36-9.42 4.17-14.84 5.13q-.49.09-.99.01-.84-.15-.96.61-.07.4-.45.55c-12.98 4.89-26.17 9.27-39.09 14.33q-10.87 4.26-21.99 7.81c-2.72.87-5.56 2.49-8.57 3.43q-4.78 1.49-6.52 2.2c-5.51 2.25-11.23 3.76-16.64 6.24-3.87 1.78-8.21 2.73-12.05 4.37-3.65 1.56-7.52 2.47-11.08 3.95q-3.69 1.54-7.5 2.71c-5.61 1.72-10.72 4.21-16.3 5.9-3.98 1.2-7.79 3.34-12.02 4.49-3.75 1.01-7.01 2.7-10.76 3.92q-8.29 2.68-17.8 6.43c-4.98 1.96-11.26 3.74-16.73 6.14q-1.79.78-6.29 2.16c-2.13.65-10.02 2.91-8.97 6.49q.11.38-.16.66l-.24.24q-.5.49.14.78 1.72.8 1.03 2.47-.16.4.04.78.93 1.72.02 2.17" stroke="#f1921d"/><path d="m1614.54 420.71q-1.12.3-.82 1.33.96 3.29 1.75 5.49a2.99 2.99 0 0 1 -1.92 3.87c-4.71 1.47-9.68 2.7-13.98 4.91-2.98 1.54-6.49 2-9.13 3.15-5.89 2.57-12.1 4.13-17.95 6.76-2.74 1.23-5.78 1.68-8.64 2.86-5.97 2.48-10.35 3.93-15.71 5.7-2.05.67-3.61 2.49-6.42 2.22a1.72 1.7-55.4 0 0 -.95.18q-6.58 3.36-13.67 5.41c-4.5 1.3-8.46 3.61-13.02 4.6-3.2.69-7.09 2.84-8.93 3.5-4.22 1.51-8.97 2.6-12.89 4.76-2.66 1.46-6.12 1.94-8.4 2.9q-3.52 1.48-7.21 2.47c-3.91 1.06-7.02 3.17-10.85 4.41q-6.45 2.07-7.9 2.66c-6.7 2.7-13.41 4.64-20.01 7.61-1.62.72-3.24.27-4.92 1.15-5.41 2.84-11.47 4.45-17.17 6.67-3.67 1.42-8.2 2.35-12.25 4.22-6.55 3.03-13.46 4.66-19.75 7.83a1.7 1.69-47 0 0 .1 3.08q1.27.53.58 2.07" stroke="#ee881b"/><path d="m1607 606.29q-.09-.09-.2-.2-.26-.29-.43.06l-.57 1.19q-.33.67-.55-.05-.66-2.14-3.23-1.53c-5.53 1.33-10.34 4.01-15.77 5.49-4 1.09-7.83 3.27-11.41 4.41q-4.24 1.36-8.41 2.89c-5.54 2.04-11.33 4.43-17.05 6.03-3.98 1.12-7.57 3.22-11.19 4.31-6.95 2.08-10.98 4.11-16.37 5.93-4.46 1.52-8.15 3.3-12.33 4.35-3.76.95-6.71 2.73-10.28 3.93-7.64 2.56-14.41 5.34-21.75 7.71-2.44.79-4.74 2.28-7.4 3.1q-5.36 1.65-5.44 1.68-10.43 3.91-20.96 7.53-2.88.99-9.65 3.71c-4.27 1.71-9.02 2.66-13.07 4.81-2.62 1.39-6.56 2.14-8.51 2.91q-12.37 4.92-25.06 8.99c-2.5.8-4.87 2.31-7.58 3.1-5.11 1.47-9.17 3.47-13.92 4.9-5.62 1.69-10.32 4.23-16.23 5.9q-3.2.91-6.85 2.83c-2.44 1.28-5.81 1.36-8.53 2.76-5.12 2.63-11.04 4.11-16.49 5.99-1.75.6-3.26 2.28-5.84 1.97q-.49-.06-.94.17c-6.97 3.7-15.09 5.67-21.91 8.43-2.88 1.17-6.27 1.92-9.32 3.24-8.01 3.47-16.33 5.75-24.39 9.03q-2.99 1.22-6.05 2.23-5.14 1.7-9.05 3.28-6.77 2.73-13.81 4.73c-1.39.4-2.3 1.56-3.7 1.91q-6.97 1.76-12.89 4.73c-3.2 1.61-6.41 1.27-9.69 3.24-2.86 1.71-5.58 1.57-8.27 3.06-1.79 1-4.16 1.36-5.74 2.09q-4.67 2.15-9.67 3.39c-2.61.64-4.4 1.82-6.75 2.91a.58.58 0 0 0 -.29.77q.6 1.3-.24 2.75" stroke="#d76d18"/><path d="m689.25 812.32-1.87.23q-.12.01-.09.04l.23.2q.35.3-.1.39l-.99.19q-.72.14-.13.58l.3.22a.28.28 0 0 1 -.15.5c-1.74.1-2.6 1.43-2.38 3.12q.7 5.49.43 11c-.57 11.61-.57 23.12-.47 34.75q0 .3-.21.52l-.34.34q-.59.58.2.82.54.17.94-.2.02-.02.05 0 .14.11.2.22.23.35-.19.33l-6.26-.26q-.52-.02-.95.27-.62.43-1.64.14-.34-.1-.24.24.04.12.17.23" stroke="#f9b522"/><path d="m984.5 857.23q2.22-1.35 4.9-1.28a.07.07 0 0 0 .02-.14l-.28-.1q-.55-.18-.26-.68l.65-1.11q.2-.35.07-.72-2.2-6.39-1.23-13.16.17-1.24-.98-4.73-.16-.47-.04-.96c.86-3.62-.8-6.8-.02-10.54a1.33 1.33 0 0 0 -.13-.93q-1.39-2.55-1.55-5.51c-.03-.63.24-1.08.7-1.43a.39.39 0 0 0 -.28-.71q-1.33.17-2.58-.18-.92-.26.04-.27 1.64-.02 3.21-.32.5-.09.76-.45" stroke="#f6a920"/><path d="m1405.74 933.98-.27-.29q-.13-.13.05-.17l2.73-.5a.69.62-45.9 0 0 .05-1.31q-.45-.02-.53.19-.09.24-.33.16l-.36-.12a.18.17-46.8 0 1 -.01-.33l1.17-.46q.54-.21.37-.76c-1.7-5.62-.86-10.85-.92-15.56q-.13-10.54-.05-21.08.25-32.39.15-64.79 0-.14-.2-1.02-.13-.59.31-1 .53-.49-.18-.61l-2.39-.42a.14.14 0 0 0 -.07.26q.13.05.26.07a.25.25 0 0 1 -.02.5l-.62.09q-.59.08-.44-.49.07-.29.35-.37a.23.23 0 0 0 -.03-.45l-.78-.12" stroke="#f1921d"/><path d="m1143.74 970.15q-.01-.13 0-.27.04-.29.33-.32c2.26-.24 3.23-2.01 2.11-4.04a1.97 1.96 30.8 0 1 -.24-.94c.18-22.28.84-45.08-.59-67.31q-.3-4.72.74-9.42a2.11 2.11 0 0 0 -.04-1.03q-.56-1.88.06-3.77.17-.5-.33-.65-.93-.3-1.94-.14a.05.05 0 0 1 -.05-.07l.16-.3q.13-.25-.15-.33-.4-.11-.58-.33" stroke="#f39d1e"/><path d="m883.25 976.25-4.09-1.64q-.46-.19-.11-.54l.35-.34a.46.46 0 0 0 -.35-.79l-8.57.39q-.16.01-.17.17 0 .15-.03.28a.15.15 0 0 1 -.29-.04q.01-.15.01-.29-.02-.46-.46-.6c-1.95-.62-1.99-3.27-.49-4.3q1.32-.92-.11-1.78-1.26-.76-1.48-2.19a.93.93 0 0 1 .56-1.01q1.89-.79 1.98-2.8.02-.35.36-.31l.82.09a1.01 1.01 0 0 0 .64-1.86c-3.43-2.13-2.24-5.91-3.97-9.18a.55.54-23 0 1 .32-.78l1.63-.51q.19-.06.2-.25 0-.14.01-.3a.25.25 0 0 0 -.22-.27l-1.2-.18q-.61-.09-.36-.65l1.09-2.52q.23-.53-.13-.98-2.26-2.86-.43-6.08a.94.94 0 0 0 0-.94q-2.28-3.88 1.6-5.44 1.4-.56 1.69-2.03c.51-2.5-1.04-5.06-1.01-7.54q.06-6-.13-11.97-.04-1.31.12-1.63a1.12 1.12 0 0 0 -1.09-1.63c-2.72.24-7.15 1.16-9.54-.26q-.29-.17.03-.27.36-.1.3-.34" stroke="#f6a920"/><path d="m685.75 904.04q.38.46.1.95-.15.26.16.26h1.23a.58.58 0 0 1 .56.71q-.21.94-1.13 1.32a.46.46 0 0 0 -.25.62l.86 1.96q.2.45-.16.78-1.25 1.14-.3 2.88a.94.93-57.3 0 1 .12.56c-.58 5.73.05 11.47-.48 17.08-.17 1.77.54 3.33.36 4.98-.89 8.31-.43 16.91-.49 25.27q0 .25.24.53.09.1.25.17.29.13.03.3l-3.65 2.43" stroke="#f9b522"/><path d="m628.76 1018.6q-.5.35.49.47a.14.14 0 0 1 .06.26l-.3.18q-.39.23-.07.55l.23.24a.34.33 63.9 0 1 -.19.57c-3.27.38-2.78 4.27-2.81 6.57q-.35 21.41 0 42.83c.09 5.22-.32 9.5 1.19 14.68a1.45 1.39 46.2 0 1 0 .81q-1.21 4.36-.09 8.73.13.49-.15.91-1.13 1.69-.88 3.65.07.54-.45.69-.81.23-1.35.84" stroke="#f9b522"/><path d="m841.75 1119.26q4.34-.94 8.6-.21.32.05.54-.2.12-.13.25-.23.24-.18.62-.18 3.82-.05 7.21-.25 2.18-.13 2.1-2.32c-1.03-26.18-.33-52.71-.33-78.93a.74.73 71.2 0 1 .28-.58q.42-.33.07-.64a.43.42-17.7 0 1 .38-.73q.24.06.47-.05.66-.32-.07-.38-.67-.06-1.23-.46-.51-.35.11-.35h.96a.23.23 0 0 0 .04-.46q-.53-.09-.5-.45" stroke="#f6a920"/><path d="m1282.01 1087.07.03-1.95q0-.52-.51-.58c-3.87-.42-3.54-5.13-3.54-8.79q-.05-33.1.08-66.11 0-1.01.94-.62 1.93.79 3-.87.34-.51-.26-.63l-.52-.1" stroke="#f39d1e"/></g><path d="m1359.49 148.81.01.4q.02.37.34.56l7.29 4.23q.21.12.09.33l-.22.37a.34.34 0 0 1 -.62-.06l-.19-.56a.22.22 0 0 0 -.42.04q-.24 1.88-2.26 2.64-9.25 3.48-14.8 5.24c-2.11.67-4.14 2.09-6.4 2.75-9.94 2.88-19.5 7.55-29.35 10.54-3.85 1.17-7.55 3.34-11.64 4.48q-3.52.97-5.58 1.86c-5.41 2.31-11.41 3.73-16.33 5.97-2.55 1.16-5.48 1.41-8.03 2.61-6.22 2.92-12.66 4.63-18.98 7.27-3.07 1.29-6.49 1.97-9.71 3.33-6.97 2.95-13.85 5.08-20.89 7.46-3.21 1.09-6.76 3-10.33 4.12-14.51 4.55-28.87 11.12-42.95 15.46-2.91.9-5.69 2.59-8.78 3.48q-4.6 1.33-6.64 2.17c-5.93 2.43-12.88 3.97-18.91 7.07q-1.22.62-4.09 1.38c-5.08 1.34-9.73 3.64-17.59 6.09-2.32.72-4.27 2.24-6.85 2.84q-3.66.84-7.13 2.4a1.06 1.04 42.2 0 1 -.8.03q-1.68-.61-2.05.74a1.19 1.17-1 0 1 -.8.82q-7.22 2.13-14.13 5.11-1.36.59-3.64 1.11c-3.09.7-6.48 2.68-8.9 3.43-10.64 3.26-21.39 8.05-31.05 11.34-4.06 1.38-7.23 2.73-12.02 4.12-2.8.82-5.46 2.38-7.9 3.21-4 1.35-7.56 2.35-11.74 4.28q-3.96 1.84-8.24 2.79c-4.34.97-10.53 5.72-15.51 5.73q-13.28.04-26.56-.07-.13 0-.14.21 0 .17.17.17l36.82.14-102.89.4q-.56 0-.57.57l-.57 74.45q-4.19 1.03-7.98 2.89c-2.8 1.36-5.73 1.45-8.58 2.74-5.75 2.6-11.65 4.3-17.45 6.74-4.38 1.83-9.84 2.81-14.51 5.59a1.3 1.29 31.3 0 1 -.76.18q-3.6-.31-6.24 2.14-.36.34-.84.46-1.89.49-1.52 2.32.07.32-.22.46-.54.27-.78 1.39-6.44-37.75-12.6-75.52-.64-3.94-1.42-7.85c-1.06-5.32-1.02-11.57-2.89-17.39q-.16-.51-.7-.51h-114.52q-.71 0-.91.68-16.89 57.5-33.73 114.73c-5.12 17.41-8.65 33.52-10.69 50.92a1.15 1.15 0 0 1 -2.25.17l-7.67-28.29q-.06-.21-.17-.4-.11-.18-.16-.39-1.89-8.42-4.15-16.74-14.99-55.16-29.83-110.36-.09-.33-.01-.65c.08-.34.12-.65.02-1q-1.23-4.07-2.43-8.1-.16-.57-.76-.57h-116.27q-.54 0-.63.53l-40.61 245.49q-.95-1.89.19-4.2a.83.82 42.2 0 0 -.04-.78q-.67-1.1-.48-2.44a1.01 1-6.4 0 0 -1.35-1.07l-15.46 5.78q-.5.18-1.03.15c-1.84-.11-3.42 1.39-4.45 1.75q-7.94 2.77-15.8 5.8c-3.1 1.2-6.97 2.03-10.37 3.5q-5.6 2.41-7.57 3.06c-3.2 1.04-8.77 2.36-11.21 4.59a1.22 1.18 24.2 0 1 -.86.31q-2.91-.14-5.49 1.11c-6.77 3.27-13.98 5.15-20.88 8-2.12.88-4.69 1.12-6.99 2.13-7.6 3.31-15.59 5.93-23.43 8.63-3.06 1.05-6.94 3.26-10.83 3.99-3 .57-6.65 2.62-8.56 3.26-7.07 2.35-14.64 5.63-20.89 7.76q-6.6 2.26-13.23 4.44-3.06 1.01-5.21 3.29-.32.34-.58-.05l-1.53-2.37c-12.6-46.61-13.22-98.57-8.77-146.34 19.43-208.48 192.6-356.32 385.08-405.8q103.38-26.58 205.3-29.15c181.11-4.57 359 45.2 517.18 131.94z" fill="#faba23"/><path d="m1359.49 148.81q50.72 26.23 95.02 61.92l.39 1.44q.15.52.69.58.92.1.4.8-.14.18-.36.13l-.96-.23a.32.32 0 0 0 -.35.47l.19.32q.25.43-.2.62c-3.87 1.64-8.29 2.6-12 4.38-4.09 1.96-8.29 3.11-12.54 4.6-2.77.97-5.95 2.78-9.19 3.69-9.16 2.57-17.9 6.71-27.01 9.47q-1.9.57-3.71 1.39c-5.79 2.61-11.9 4.25-17.79 6.66-4.15 1.69-9.74 2.87-14.34 5.52a1.65 1.63-57.1 0 1 -.94.21c-2.68-.27-4.68 1.51-6.35 2.09-3.24 1.12-6.01 2.33-9.58 3.3-4.3 1.17-7.81 3.57-12.19 4.59-6.17 1.44-12.5 4.71-18.67 6.65-2.52.79-4.8 2.37-7.54 3.18-4.76 1.38-7.94 2.78-12.01 4-4.19 1.27-8.08 3.41-12.33 4.7-6.83 2.07-13.29 4.95-20.11 7.12-3.09.99-6.8 3.23-10.81 3.72q-.91.11-1.37 1.46-.11.35.25.31 6.72-.74 13.45-.21.18.01.31-.06.29-.17.32-.47a.23.23 0 0 1 .34-.18l.25.15q.23.14.5.11l5.93-.59a.14.14 0 0 1 .06.27q-.13.05-.27.09-.76.21.01.38l4.25.91q.11.02.13.14l.05.3q.08.44.52.4 2.89-.25 5.01.69c-9.9-.44-18-.88-28.94-.36q-47.19 2.25-85.29 30.5l.09-.88q.14-1.27-1.11-1-6.84 1.44-12.22 4.11c-3 1.49-5.77 1.61-8.19 2.67q-6.48 2.82-13.24 4.9c-2.94.91-5.8 2.63-8.93 3.62q-6.5 2.05-6.6 2.09c-16.03 6.02-29.09 10.16-42.58 15.62-4.28 1.73-9.32 3-13.91 5.07-5.7 2.58-11.84 4.25-18.17 6.37-3.67 1.23-7.03 3.18-11.36 4.28-5.38 1.36-10.54 4.03-15.9 5.72-3.75 1.17-6.73 3.61-11.44 3.53q-.15 0-.15.15 0 .12 0 .25 0 .09-.08.13l-5.42 2.81a.16.16 0 0 1 -.22-.18q.08-.34-.1-.47-.3-.22-.38.15l-.49 2.34-.27-88.81-36.82-.14q-.17 0-.17-.17.01-.21.14-.21 13.28.11 26.56.07c4.98-.01 11.17-4.76 15.51-5.73q4.28-.95 8.24-2.79c4.18-1.93 7.74-2.93 11.74-4.28 2.44-.83 5.1-2.39 7.9-3.21 4.79-1.39 7.96-2.74 12.02-4.12 9.66-3.29 20.41-8.08 31.05-11.34 2.42-.75 5.81-2.73 8.9-3.43q2.28-.52 3.64-1.11 6.91-2.98 14.13-5.11a1.19 1.17-1 0 0 .8-.82q.37-1.35 2.05-.74a1.06 1.04 42.2 0 0 .8-.03q3.47-1.56 7.13-2.4c2.58-.6 4.53-2.12 6.85-2.84 7.86-2.45 12.51-4.75 17.59-6.09q2.87-.76 4.09-1.38c6.03-3.1 12.98-4.64 18.91-7.07q2.04-.84 6.64-2.17c3.09-.89 5.87-2.58 8.78-3.48 14.08-4.34 28.44-10.91 42.95-15.46 3.57-1.12 7.12-3.03 10.33-4.12 7.04-2.38 13.92-4.51 20.89-7.46 3.22-1.36 6.64-2.04 9.71-3.33 6.32-2.64 12.76-4.35 18.98-7.27 2.55-1.2 5.48-1.45 8.03-2.61 4.92-2.24 10.92-3.66 16.33-5.97q2.06-.89 5.58-1.86c4.09-1.14 7.79-3.31 11.64-4.48 9.85-2.99 19.41-7.66 29.35-10.54 2.26-.66 4.29-2.08 6.4-2.75q5.55-1.76 14.8-5.24 2.02-.76 2.26-2.64a.22.22 0 0 1 .42-.04l.19.56a.34.34 0 0 0 .62.06l.22-.37q.12-.21-.09-.33l-7.29-4.23q-.32-.19-.34-.56z" fill="#f7af21"/><path d="m1454.51 210.73q56.79 46.03 100.56 104.42l-1.98.35q-.44.08-.73.43-1.3 1.56-3.37 2.06-5.9 1.44-11.44 3.92c-2.15.96-4.5 1.23-6.77 2.27-5.22 2.42-10.54 4-15.97 5.85-1.84.63-3.63 2.02-5.76 2.59-5.13 1.38-9.61 3.62-14.7 5.07q-4.05 1.15-7.92 2.83c-3.32 1.43-7 2.03-10.42 3.58-5.79 2.62-11.1 3.99-16.61 6.31-3.89 1.64-7.99 2.67-11.98 4.25-6.75 2.67-13.86 5.67-20.58 7.43-2.97.78-5.58 2.56-8.38 3.29q-6.71 1.76-12.85 5.05-.33.18-.56.48-.45.62-.17.86a.3.21 70.8 0 1 -.14.49l-.29-.17q-.32-.19-.43.16-.05.14-.13.27c-25.93-46.17-74.74-73.5-126.95-78.69q-2.12-.94-5.01-.69-.44.04-.52-.4l-.05-.3q-.02-.12-.13-.14l-4.25-.91q-.77-.17-.01-.38.14-.04.27-.09a.14.14 0 0 0 -.06-.27l-5.93.59q-.27.03-.5-.11l-.25-.15a.23.23 0 0 0 -.34.18q-.03.3-.32.47-.13.07-.31.06-6.73-.53-13.45.21-.36.04-.25-.31.46-1.35 1.37-1.46c4.01-.49 7.72-2.73 10.81-3.72 6.82-2.17 13.28-5.05 20.11-7.12 4.25-1.29 8.14-3.43 12.33-4.7 4.07-1.22 7.25-2.62 12.01-4 2.74-.81 5.02-2.39 7.54-3.18 6.17-1.94 12.5-5.21 18.67-6.65 4.38-1.02 7.89-3.42 12.19-4.59 3.57-.97 6.34-2.18 9.58-3.3 1.67-.58 3.67-2.36 6.35-2.09a1.65 1.63-57.1 0 0 .94-.21c4.6-2.65 10.19-3.83 14.34-5.52 5.89-2.41 12-4.05 17.79-6.66q1.81-.82 3.71-1.39c9.11-2.76 17.85-6.9 27.01-9.47 3.24-.91 6.42-2.72 9.19-3.69 4.25-1.49 8.45-2.64 12.54-4.6 3.71-1.78 8.13-2.74 12-4.38q.45-.19.2-.62l-.19-.32a.32.32 0 0 1 .35-.47l.96.23q.22.05.36-.13.52-.7-.4-.8-.54-.06-.69-.58z" fill="#f4a21f"/><g fill="#fff"><path d="m1276.94 293.83c52.21 5.19 101.02 32.52 126.95 78.69l3.09 5.76q.24.45-.22.68l-79.53 39.59a1.27 1.26 64.7 0 1 -1.72-.62c-12.3-28.15-30.08-50.46-63.83-49.61-38.33.96-58.79 32.31-62.15 67.19-2.1 21.72-1.02 44.82 6.5 64.77 7.24 21.09 23.23 37.36 45.61 40.89 10.59 1.67 21.98.98 31.85-2.58q.47-.17.97-.1c1.04.16 1.63-.57 2.41-.9 19.41-8.23 31.7-25.6 37.98-45.14a.76.75-68 0 1 1.05-.45l58.58 28.52 22.83 11.04q.47.22.23.68c-12.99 24.7-27.29 44.51-51.12 60.18-13.98 9.19-29.46 16.35-45.6 20.79-58.72 16.13-123.98 6.11-167.73-38.65-13.88-14.2-23.91-31.54-31.19-49.77q-14.94-39.72-11.28-82.04c4.38-46.83 25.14-89.28 62.09-118.78q38.1-28.25 85.29-30.5c10.94-.52 19.04-.08 28.94.36z"/><path d="m829.13 396.77 20.57 122.24 15.96 95.03q.13.76-.64.77l-108.26.27q-1.3 0-1.42-1.3l-15.67-172.55a.53.53 0 0 0 -1.05-.08c-1.33 5.22-1.94 10.86-3.26 15.67q-2.76 10.03-3.69 12.86-23.77 72.46-47.6 144.78a.67.66-80.9 0 1 -.63.46l-38.94.23-30.14-.56q-.53-.01-.68-.51-18.95-60.9-38.16-121.72c-5.07-16.07-9.82-33.6-10.93-49.84q-.07-1-.47-1.45-.67-.76-1.79-.25a.98.96-10.5 0 0 -.57.81c-4.25 57.56-10.82 115.03-16.63 172.47q-.05.51-.57.52l-79.79.36-29.67.06a.51.5 4.4 0 1 -.5-.58l12.15-72.94 40.61-245.49q.09-.53.63-.53h116.27q.6 0 .76.57 1.2 4.03 2.43 8.1c.1.35.06.66-.02 1q-.08.32.01.65 14.84 55.2 29.83 110.36 2.26 8.32 4.15 16.74.05.21.16.39.11.19.17.4l7.67 28.29a1.15 1.15 0 0 0 2.25-.17c2.04-17.4 5.57-33.51 10.69-50.92q16.84-57.23 33.73-114.73.2-.68.91-.68h114.52q.54 0 .7.51c1.87 5.82 1.83 12.07 2.89 17.39q.78 3.91 1.42 7.85 6.16 37.77 12.6 75.52z"/><path d="m992.04 296.44.27 88.81-.12 118.03-.25 28.94q-.01 1.37 1.31 1.72.89.23 2.75.24c25.94.19 51.86.25 77.8-.34q13.07-.3 26.14-.05l-.22 81.56-165.22-.06-18.89-.3q-.02 0-.03.03-.04.12-.08.25a.27.25-82.8 0 1 -.25.21l-26.59.11q-.67.01-.67-.66l-.02-76.68.04-166.39.57-74.45q.01-.57.57-.57z"/></g><path d="m1555.07 315.15q14.47 19.33 26.08 38.42-25.96 8.79-52.03 18.34c-14.04 5.14-25.28 9.37-37.92 14.03-1.68.62-4.06 1.04-5.92 1.92-9.47 4.49-19.5 6.09-29.7 11.12-2.59 1.28-5.36 1.45-8.09 2.58-5.35 2.2-8.4 3.24-12.74 4.75-3.93 1.36-9.42 4.17-14.84 5.13q-.49.09-.99.01-.84-.15-.96.61-.07.4-.45.55c-12.98 4.89-26.17 9.27-39.09 14.33q-10.87 4.26-21.99 7.81c-2.72.87-5.56 2.49-8.57 3.43q-4.78 1.49-6.52 2.2c-5.51 2.25-11.23 3.76-16.64 6.24-3.87 1.78-8.21 2.73-12.05 4.37-3.65 1.56-7.52 2.47-11.08 3.95q-3.69 1.54-7.5 2.71c-5.61 1.72-10.72 4.21-16.3 5.9-3.98 1.2-7.79 3.34-12.02 4.49-3.75 1.01-7.01 2.7-10.76 3.92q-8.29 2.68-17.8 6.43c-4.98 1.96-11.26 3.74-16.73 6.14q-1.79.78-6.29 2.16c-2.13.65-10.02 2.91-8.97 6.49q.11.38-.16.66l-.24.24q-.5.49.14.78 1.72.8 1.03 2.47-.16.4.04.78.93 1.72.02 2.17c-7.52-19.95-8.6-43.05-6.5-64.77 3.36-34.88 23.82-66.23 62.15-67.19 33.75-.85 51.53 21.46 63.83 49.61a1.27 1.26 64.7 0 0 1.72.62l79.53-39.59q.46-.23.22-.68l-3.09-5.76q.08-.13.13-.27.11-.35.43-.16l.29.17a.3.21 70.8 0 0 .14-.49q-.28-.24.17-.86.23-.3.56-.48 6.14-3.29 12.85-5.05c2.8-.73 5.41-2.51 8.38-3.29 6.72-1.76 13.83-4.76 20.58-7.43 3.99-1.58 8.09-2.61 11.98-4.25 5.51-2.32 10.82-3.69 16.61-6.31 3.42-1.55 7.1-2.15 10.42-3.58q3.87-1.68 7.92-2.83c5.09-1.45 9.57-3.69 14.7-5.07 2.13-.57 3.92-1.96 5.76-2.59 5.43-1.85 10.75-3.43 15.97-5.85 2.27-1.04 4.62-1.31 6.77-2.27q5.54-2.48 11.44-3.92 2.07-.5 3.37-2.06.29-.35.73-.43z" fill="#f2971d"/><path d="m1162.71 323.97c-36.95 29.5-57.71 71.95-62.09 118.78q.21-2.16-.9-3.53-.36-.45-.04-.94l.59-.87a.73.73 0 0 0 -.74-1.13q-4.38.84-8.59 2.5c-6.67 2.63-10.97 4.15-16.63 6-2.21.72-4.23 2.2-6.72 2.92-7.93 2.3-15.69 5.41-23.44 8.26-8.08 2.97-16.42 5.62-24.4 8.86-5.15 2.09-10.87 3.64-16.16 6-2.33 1.04-5.25 1.28-7.8 2.9q-1.71 1.09-1.78-.93l-.23-6.24a.29.29 0 0 0 -.58 0l-1.01 36.73.12-118.03.49-2.34q.08-.37.38-.15.18.13.1.47a.16.16 0 0 0 .22.18l5.42-2.81q.08-.04.08-.13 0-.13 0-.25 0-.15.15-.15c4.71.08 7.69-2.36 11.44-3.53 5.36-1.69 10.52-4.36 15.9-5.72 4.33-1.1 7.69-3.05 11.36-4.28 6.33-2.12 12.47-3.79 18.17-6.37 4.59-2.07 9.63-3.34 13.91-5.07 13.49-5.46 26.55-9.6 42.58-15.62q.1-.04 6.6-2.09c3.13-.99 5.99-2.71 8.93-3.62q6.76-2.08 13.24-4.9c2.42-1.06 5.19-1.18 8.19-2.67q5.38-2.67 12.22-4.11 1.25-.27 1.11 1z" fill="#f4a21f"/><path d="m1581.15 353.57q20.41 32.8 33.39 67.14-1.12.3-.82 1.33.96 3.29 1.75 5.49a2.99 2.99 0 0 1 -1.92 3.87c-4.71 1.47-9.68 2.7-13.98 4.91-2.98 1.54-6.49 2-9.13 3.15-5.89 2.57-12.1 4.13-17.95 6.76-2.74 1.23-5.78 1.68-8.64 2.86-5.97 2.48-10.35 3.93-15.71 5.7-2.05.67-3.61 2.49-6.42 2.22a1.72 1.7-55.4 0 0 -.95.18q-6.58 3.36-13.67 5.41c-4.5 1.3-8.46 3.61-13.02 4.6-3.2.69-7.09 2.84-8.93 3.5-4.22 1.51-8.97 2.6-12.89 4.76-2.66 1.46-6.12 1.94-8.4 2.9q-3.52 1.48-7.21 2.47c-3.91 1.06-7.02 3.17-10.85 4.41q-6.45 2.07-7.9 2.66c-6.7 2.7-13.41 4.64-20.01 7.61-1.62.72-3.24.27-4.92 1.15-5.41 2.84-11.47 4.45-17.17 6.67-3.67 1.42-8.2 2.35-12.25 4.22-6.55 3.03-13.46 4.66-19.75 7.83a1.7 1.69-47 0 0 .1 3.08q1.27.53.58 2.07l-58.58-28.52a.76.75-68 0 0 -1.05.45c-6.28 19.54-18.57 36.91-37.98 45.14-.78.33-1.37 1.06-2.41.9q-.5-.07-.97.1c-9.87 3.56-21.26 4.25-31.85 2.58-22.38-3.53-38.37-19.8-45.61-40.89q.91-.45-.02-2.17-.2-.38-.04-.78.69-1.67-1.03-2.47-.64-.29-.14-.78l.24-.24q.27-.28.16-.66c-1.05-3.58 6.84-5.84 8.97-6.49q4.5-1.38 6.29-2.16c5.47-2.4 11.75-4.18 16.73-6.14q9.51-3.75 17.8-6.43c3.75-1.22 7.01-2.91 10.76-3.92 4.23-1.15 8.04-3.29 12.02-4.49 5.58-1.69 10.69-4.18 16.3-5.9q3.81-1.17 7.5-2.71c3.56-1.48 7.43-2.39 11.08-3.95 3.84-1.64 8.18-2.59 12.05-4.37 5.41-2.48 11.13-3.99 16.64-6.24q1.74-.71 6.52-2.2c3.01-.94 5.85-2.56 8.57-3.43q11.12-3.55 21.99-7.81c12.92-5.06 26.11-9.44 39.09-14.33q.38-.15.45-.55.12-.76.96-.61.5.08.99-.01c5.42-.96 10.91-3.77 14.84-5.13 4.34-1.51 7.39-2.55 12.74-4.75 2.73-1.13 5.5-1.3 8.09-2.58 10.2-5.03 20.23-6.63 29.7-11.12 1.86-.88 4.24-1.3 5.92-1.92 12.64-4.66 23.88-8.89 37.92-14.03q26.07-9.55 52.03-18.34z" fill="#ef8c1c"/><path d="m888.01 371.86-.04 166.39-.46-31.17q-.01-.43-.44-.48c-4.9-.48-7.37 2.06-11.81 3.69q-7.68 2.82-15.52 5.18-3.84 1.16-7.36 3.14-.5.28-.6.85-.12.74-.86.39-.77-.37-.8-.39l-.42-.45-20.57-122.24q.24-1.12.78-1.39.29-.14.22-.46-.37-1.83 1.52-2.32.48-.12.84-.46 2.64-2.45 6.24-2.14a1.3 1.29 31.3 0 0 .76-.18c4.67-2.78 10.13-3.76 14.51-5.59 5.8-2.44 11.7-4.14 17.45-6.74 2.85-1.29 5.78-1.38 8.58-2.74q3.79-1.86 7.98-2.89z" fill="#f4a21f"/><path d="m1614.54 420.71c12.09 31.61 16.66 61.4 13.2 95.04q-.46-.69-1.02.63-.31.75-.59-.01c-1.43-3.97-9.97.51-12.52 1.32q-2.41.75-6.61 2.29-70.67 25.91-141.41 51.6c-1.7.62-4.97 1.53-7.34 2.66-2.12 1.02-4.25 1.26-6.4 2.17q-4.27 1.8-4.33 1.82-25.56 9.08-51 18.48-5.03 1.86-10.1 3.81-.45.18-.67.6-.31.58-.99.44-.49-.11-.97.05-12.28 3.95-24.36 8.46c-2.25.84-3.91 1.33-6.41 2.65-1.72.9-3.63.87-5.28 1.57-7.18 3.02-14.68 5.18-21.79 8.24q-1.09.47-2.88 1.04c-10.22 3.26-23.78 8.94-39.34 14.14-4.09 1.36-9.01 3.54-12.09 4.64q-35.35 12.64-70.56 25.66c-1.55.58-3.69.95-5.41 1.76q-3.15 1.47-3.87 1.72c-18.29 6.31-36.34 13.25-54.53 19.76q-28.47 10.19-56.82 20.7c-11.52 4.27-23.81 8.8-35.77 12.88-7.99 2.73-17.71 6.59-23.79 8.75q-30.81 10.95-61.29 22.75c-3.58 1.38-7.97 2.41-11.85 3.85-7.68 2.87-15.19 5.47-22.71 8.39-4.95 1.92-17.05 4.78-19.05 9.33q-.2.45-.66.63c-5.42 2.13-12.55 1.2-18.35 1.24q-.19 0-.22.18-.03.15.01.28-125.06-.42-249.27-14.27 1.14-.51 1.15-1.59 0-.37.37-.37h.46a.34.34 0 0 0 .29-.16q1.81-2.86 5.75-3.84 6.41-1.6 13.96-4.8c3.14-1.33 6.71-2.01 10.03-3.43 5.05-2.16 9.8-3.42 14.47-5.64 2.74-1.31 5.44-1.42 8.32-2.69q4.91-2.16 5.98-2.5c5.66-1.79 11.29-4.32 17.06-6.13q3.79-1.19 7.16-2.63c5.04-2.14 10.46-3.31 15.34-5.76q1.81-.92 3.99-.85a1.94 1.9-56.9 0 0 .95-.21c5.79-2.98 12.35-4.79 17.95-7.04q5.28-2.12 10.77-3.7c2.7-.77 4.88-2.49 7.73-3.31 5.45-1.57 9.75-3.5 14.79-5 10.03-2.97 19.72-7.88 29.71-10.79 2.6-.76 4.78-2.41 7.52-3.21 7.97-2.34 15.75-5.43 23.57-8.22 7.44-2.65 14.53-5.73 21.97-7.92 2.75-.82 5.49-2.69 8.62-3.3 4.6-.89 8.65-3.33 13.12-4.77 5.33-1.73 10.42-4.05 15.85-5.46 2.94-.76 5.27-2.82 8.13-3.39q2.67-.53 4.85-1.41c5.27-2.12 10.65-3.91 16.02-5.78 2.1-.74 4.63-2.33 7.08-2.95q3.76-.95 5.23-1.58c6.12-2.63 12.11-4.35 18.59-7.08 4.34-1.83 8.68-2.7 12.85-4.96 2.02-1.08 4.18-.53 6.4-1.81 3.71-2.14 7.72-3.05 11.77-4.36 9.04-2.95 17.99-6.9 26.82-10.06 1.1-.4 1.34-.98 2.04-1.83q.38-.47-.23-.49l-13.93-.43q-.4-.02-.07-.21c.32-.19 3.24-.04 4.77-.08q.42-.01.12-.21-.11-.07-.31 0-.42.15-.79-.06-.4-.24.06-.24l75.94-.36.22-81.56-11.6-.23a1.26 1.26 0 0 1 -.41-2.44l20.1-7.47q.39-.15.79-.11.61.05.86-.56.09-.23.34-.23h.48a.46.46 0 0 1 .46.49q-.08 1.28.94 1.55c7.28 18.23 17.31 35.57 31.19 49.77 43.75 44.76 109.01 54.78 167.73 38.65 16.14-4.44 31.62-11.6 45.6-20.79 23.83-15.67 38.13-35.48 51.12-60.18q.24-.46-.23-.68l-22.83-11.04q.69-1.54-.58-2.07a1.7 1.69-47 0 1 -.1-3.08c6.29-3.17 13.2-4.8 19.75-7.83 4.05-1.87 8.58-2.8 12.25-4.22 5.7-2.22 11.76-3.83 17.17-6.67 1.68-.88 3.3-.43 4.92-1.15 6.6-2.97 13.31-4.91 20.01-7.61q1.45-.59 7.9-2.66c3.83-1.24 6.94-3.35 10.85-4.41q3.69-.99 7.21-2.47c2.28-.96 5.74-1.44 8.4-2.9 3.92-2.16 8.67-3.25 12.89-4.76 1.84-.66 5.73-2.81 8.93-3.5 4.56-.99 8.52-3.3 13.02-4.6q7.09-2.05 13.67-5.41a1.72 1.7-55.4 0 1 .95-.18c2.81.27 4.37-1.55 6.42-2.22 5.36-1.77 9.74-3.22 15.71-5.7 2.86-1.18 5.9-1.63 8.64-2.86 5.85-2.63 12.06-4.19 17.95-6.76 2.64-1.15 6.15-1.61 9.13-3.15 4.3-2.21 9.27-3.44 13.98-4.91a2.99 2.99 0 0 0 1.92-3.87q-.79-2.2-1.75-5.49-.3-1.03.82-1.33z" fill="#ed831a"/><path d="m1100.62 442.75q-3.66 42.32 11.28 82.04-1.02-.27-.94-1.55a.46.46 0 0 0 -.46-.49h-.48q-.25 0-.34.23-.25.61-.86.56-.4-.04-.79.11l-20.1 7.47a1.26 1.26 0 0 0 .41 2.44l11.6.23q-13.07-.25-26.14.05c-25.94.59-51.86.53-77.8.34q-1.86-.01-2.75-.24-1.32-.35-1.31-1.72l.25-28.94 1.01-36.73a.29.29 0 0 1 .58 0l.23 6.24q.07 2.02 1.78.93c2.55-1.62 5.47-1.86 7.8-2.9 5.29-2.36 11.01-3.91 16.16-6 7.98-3.24 16.32-5.89 24.4-8.86 7.75-2.85 15.51-5.96 23.44-8.26 2.49-.72 4.51-2.2 6.72-2.92 5.66-1.85 9.96-3.37 16.63-6q4.21-1.66 8.59-2.5a.73.73 0 0 1 .74 1.13l-.59.87q-.32.49.04.94 1.11 1.37.9 3.53z" fill="#f2971d"/><path d="m644.5 615.15c-4.53-.15-8.9 1.15-13.01 1.12q-5.72-.04-11.44.01-.08 0-.02.06l.27.23q.16.13-.02.25c-1.58 1.06-2.46 2.18-4.35 2.76q-3.45 1.06-6.86 2.27c-2.01.72-4 2.13-6.35 2.81-7.43 2.13-14.61 5.1-21.93 7.59q-.46.16-.8.5-.54.55-1.76.77-3.74.68-9.19 2.98c-5.46 2.31-11.08 3.84-16.49 6.2-7.05 3.09-15.98 5.67-27.94 10.27q-1.03.39-3.18.9c-2.71.63-5.92 2.45-7.68 3.06-4.31 1.48-8.9 2.64-12.91 4.83-2.39 1.3-4.88 1.01-7.08 2.06-6.9 3.3-14.53 5.34-21.43 8.11-2.49 1-5.7 1.53-8.46 2.88-5.71 2.77-11.8 4.15-17.63 6.68q-2.21.96-4.57 1.56c-3.81.96-6.25 2.59-9.54 3.46-5.02 1.34-9.49 3.54-14.37 5.18-6.29 2.11-12.51 5.03-19.03 6.96-2.59.77-4.82 2.43-7.62 3.25-9.47 2.79-18.75 6.53-28.04 9.89q-.37.13-.44.51-.06.38-.92.79-17.57-5.46-35.13-10.97c-13.99-4.38-29.07-23.32-36.69-35.38l1.52.03q.33.01.48.29.56.99 1.06 1.94.31.59.88.26 6.64-3.83 13.9-6.11c5.74-1.8 10.88-4.11 16.49-5.73 3.27-.95 6.21-3.16 10.1-3.51 1.71-.16 2.89-1.58 4.67-2.05 2.74-.72 5.04-2.11 7.79-2.75q3.84-.9 8.03-3.06c3.08-1.58 6.68-1.8 9.91-3.51 4.58-2.44 9.52-3.47 14.28-5.38 5.21-2.09 10.35-3.24 16.11-5.81 2.66-1.19 5.83-1.54 8.63-2.92 5.97-2.95 12.43-4.45 18.57-7.09 3.17-1.36 7.25-1.99 10.67-3.94q.41-.24.66-.64.5-.8 1.56-.43c1.8.63 4.1-.44 6.06-.27q5.11.42 10.23.04c1.75-.13 4.12-1.24 6.01-.86q4.67.94 7.27-.26l79.79-.36q.52-.01.57-.52c5.81-57.44 12.38-114.91 16.63-172.47a.98.96-10.5 0 1 .57-.81q1.12-.51 1.79.25.4.45.47 1.45c1.11 16.24 5.86 33.77 10.93 49.84q19.21 60.82 38.16 121.72.15.5.68.51z" fill="#f4a21f"/><path d="m849.7 519.01.42.45q.03.02.8.39.74.35.86-.39.1-.57.6-.85 3.52-1.98 7.36-3.14 7.84-2.36 15.52-5.18c4.44-1.63 6.91-4.17 11.81-3.69q.43.05.44.48l.46 31.17.02 76.68q0 .67.67.66l26.59-.11a.27.25-82.8 0 0 .25-.21q.04-.13.08-.25.01-.03.03-.03l18.89.3q-4.43.06-10.74.96c-4.54.65-10.19-.1-13.94-.07q-8.3.08-16.6.29-.54.01-.9.41-.57.64-1.52.36-.5-.14-.79.3c-1.66 2.61-5.45 2.53-8.1 3.77-5.82 2.73-11.85 4.4-17.78 6.85-3.52 1.46-7.74 2.3-11.5 4.01q-3.54 1.62-6.51 2.48c-4.3 1.24-8.29 3.46-12.63 4.39-3.1.66-5.92 2.67-8.51 3.45-6.37 1.91-12.46 4.84-18.79 6.64-4.28 1.22-8.49 3.5-12.27 4.58q-8.07 2.33-10.49 3.73-2.64 1.54-4.71 1.54-.49 0-.92.23c-5.04 2.66-11.02 4.05-15.64 5.93q-6.35 2.6-12.94 4.59c-2.41.73-4.79 2.34-7.43 3q-3.29.82-4.97 1.59c-5 2.28-10.36 3.69-15.39 5.78-4.39 1.81-8.78 2.75-13.18 4.8-3.18 1.49-6.52 1.95-9.66 3.28q-2.17.92-4.44 1.62c-2.1.65-3.67 2.36-6.44 2.18a1.9 1.9 0 0 0 -.95.19c-10.92 5.34-22.93 8.35-33.9 12.98q-2.28.97-6.34 2.18c-3.5 1.04-6.38 3.07-10 3.62-3.17.49-6.94 2.72-8.97 3.39q-3.56 1.16-7.12 2.33c-2.82.92-5.72 2.65-8.79 3.62-9.86 3.1-19.84 7.4-26.89 9.47q-2.89.85-4.75 1.63c-6.15 2.59-12.43 4.56-18.61 7.04-3.66 1.47-8.77 2.46-12.8 4.57-4.92 2.57-10.25 2.97-15.7 6.57a1.17.12-4.9 0 1 -.89.17q-.12.01-.25-.01-1.03-.18-.07.6l.48.39q.34.28-.04.49-.17.09-.37.12-86.21-13.98-170.04-38.24.86-.41.92-.79.07-.38.44-.51c9.29-3.36 18.57-7.1 28.04-9.89 2.8-.82 5.03-2.48 7.62-3.25 6.52-1.93 12.74-4.85 19.03-6.96 4.88-1.64 9.35-3.84 14.37-5.18 3.29-.87 5.73-2.5 9.54-3.46q2.36-.6 4.57-1.56c5.83-2.53 11.92-3.91 17.63-6.68 2.76-1.35 5.97-1.88 8.46-2.88 6.9-2.77 14.53-4.81 21.43-8.11 2.2-1.05 4.69-.76 7.08-2.06 4.01-2.19 8.6-3.35 12.91-4.83 1.76-.61 4.97-2.43 7.68-3.06q2.15-.51 3.18-.9c11.96-4.6 20.89-7.18 27.94-10.27 5.41-2.36 11.03-3.89 16.49-6.2q5.45-2.3 9.19-2.98 1.22-.22 1.76-.77.34-.34.8-.5c7.32-2.49 14.5-5.46 21.93-7.59 2.35-.68 4.34-2.09 6.35-2.81q3.41-1.21 6.86-2.27c1.89-.58 2.77-1.7 4.35-2.76q.18-.12.02-.25l-.27-.23q-.06-.06.02-.06 5.72-.05 11.44-.01c4.11.03 8.48-1.27 13.01-1.12l38.94-.23a.67.66-80.9 0 0 .63-.46q23.83-72.32 47.6-144.78.93-2.83 3.69-12.86c1.32-4.81 1.93-10.45 3.26-15.67a.53.53 0 0 1 1.05.08l15.67 172.55q.12 1.3 1.42 1.3l108.26-.27q.77-.01.64-.77z" fill="#f2971d"/><path d="m1627.74 515.75q-3.58 46.87-20.74 90.54-.09-.09-.2-.2-.26-.29-.43.06l-.57 1.19q-.33.67-.55-.05-.66-2.14-3.23-1.53c-5.53 1.33-10.34 4.01-15.77 5.49-4 1.09-7.83 3.27-11.41 4.41q-4.24 1.36-8.41 2.89c-5.54 2.04-11.33 4.43-17.05 6.03-3.98 1.12-7.57 3.22-11.19 4.31-6.95 2.08-10.98 4.11-16.37 5.93-4.46 1.52-8.15 3.3-12.33 4.35-3.76.95-6.71 2.73-10.28 3.93-7.64 2.56-14.41 5.34-21.75 7.71-2.44.79-4.74 2.28-7.4 3.1q-5.36 1.65-5.44 1.68-10.43 3.91-20.96 7.53-2.88.99-9.65 3.71c-4.27 1.71-9.02 2.66-13.07 4.81-2.62 1.39-6.56 2.14-8.51 2.91q-12.37 4.92-25.06 8.99c-2.5.8-4.87 2.31-7.58 3.1-5.11 1.47-9.17 3.47-13.92 4.9-5.62 1.69-10.32 4.23-16.23 5.9q-3.2.91-6.85 2.83c-2.44 1.28-5.81 1.36-8.53 2.76-5.12 2.63-11.04 4.11-16.49 5.99-1.75.6-3.26 2.28-5.84 1.97q-.49-.06-.94.17c-6.97 3.7-15.09 5.67-21.91 8.43-2.88 1.17-6.27 1.92-9.32 3.24-8.01 3.47-16.33 5.75-24.39 9.03q-2.99 1.22-6.05 2.23-5.14 1.7-9.05 3.28-6.77 2.73-13.81 4.73c-1.39.4-2.3 1.56-3.7 1.91q-6.97 1.76-12.89 4.73c-3.2 1.61-6.41 1.27-9.69 3.24-2.86 1.71-5.58 1.57-8.27 3.06-1.79 1-4.16 1.36-5.74 2.09q-4.67 2.15-9.67 3.39c-2.61.64-4.4 1.82-6.75 2.91a.58.58 0 0 0 -.29.77q.6 1.3-.24 2.75-135.52 13.7-271.82 13.55c-3.11 0-7.07-.35-10.63-.27q-.04-.13-.01-.28.03-.18.22-.18c5.8-.04 12.93.89 18.35-1.24q.46-.18.66-.63c2-4.55 14.1-7.41 19.05-9.33 7.52-2.92 15.03-5.52 22.71-8.39 3.88-1.44 8.27-2.47 11.85-3.85q30.48-11.8 61.29-22.75c6.08-2.16 15.8-6.02 23.79-8.75 11.96-4.08 24.25-8.61 35.77-12.88q28.35-10.51 56.82-20.7c18.19-6.51 36.24-13.45 54.53-19.76q.72-.25 3.87-1.72c1.72-.81 3.86-1.18 5.41-1.76q35.21-13.02 70.56-25.66c3.08-1.1 8-3.28 12.09-4.64 15.56-5.2 29.12-10.88 39.34-14.14q1.79-.57 2.88-1.04c7.11-3.06 14.61-5.22 21.79-8.24 1.65-.7 3.56-.67 5.28-1.57 2.5-1.32 4.16-1.81 6.41-2.65q12.08-4.51 24.36-8.46.48-.16.97-.05.68.14.99-.44.22-.42.67-.6 5.07-1.95 10.1-3.81 25.44-9.4 51-18.48.06-.02 4.33-1.82c2.15-.91 4.28-1.15 6.4-2.17 2.37-1.13 5.64-2.04 7.34-2.66q70.74-25.69 141.41-51.6 4.2-1.54 6.61-2.29c2.55-.81 11.09-5.29 12.52-1.32q.28.76.59.01.56-1.32 1.02-.63z" fill="#e07619"/><path d="m446.75 541.52-12.15 72.94a.51.5 4.4 0 0 .5.58l29.67-.06q-2.6 1.2-7.27.26c-1.89-.38-4.26.73-6.01.86q-5.12.38-10.23-.04c-1.96-.17-4.26.9-6.06.27q-1.06-.37-1.56.43-.25.4-.66.64c-3.42 1.95-7.5 2.58-10.67 3.94-6.14 2.64-12.6 4.14-18.57 7.09-2.8 1.38-5.97 1.73-8.63 2.92-5.76 2.57-10.9 3.72-16.11 5.81-4.76 1.91-9.7 2.94-14.28 5.38-3.23 1.71-6.83 1.93-9.91 3.51q-4.19 2.16-8.03 3.06c-2.75.64-5.05 2.03-7.79 2.75-1.78.47-2.96 1.89-4.67 2.05-3.89.35-6.83 2.56-10.1 3.51-5.61 1.62-10.75 3.93-16.49 5.73q-7.26 2.28-13.9 6.11-.57.33-.88-.26-.5-.95-1.06-1.94-.15-.28-.48-.29l-1.52-.03c-13.85-19.92-23.52-45.19-29.19-68.58l1.53 2.37q.26.39.58.05 2.15-2.28 5.21-3.29 6.63-2.18 13.23-4.44c6.25-2.13 13.82-5.41 20.89-7.76 1.91-.64 5.56-2.69 8.56-3.26 3.89-.73 7.77-2.94 10.83-3.99 7.84-2.7 15.83-5.32 23.43-8.63 2.3-1.01 4.87-1.25 6.99-2.13 6.9-2.85 14.11-4.73 20.88-8q2.58-1.25 5.49-1.11a1.22 1.18 24.2 0 0 .86-.31c2.44-2.23 8.01-3.55 11.21-4.59q1.97-.65 7.57-3.06c3.4-1.47 7.27-2.3 10.37-3.5q7.86-3.03 15.8-5.8c1.03-.36 2.61-1.86 4.45-1.75q.53.03 1.03-.15l15.46-5.78a1.01 1-6.4 0 1 1.35 1.07q-.19 1.34.48 2.44a.83.82 42.2 0 1 .04.78q-1.14 2.31-.19 4.2z" fill="#f7af21"/><path d="m1607 606.29q-19.42 50.98-55.85 91.66a1.81 1.79-76.6 0 1 -.82.51q-40.4 11.22-72.82 18.57-150.89 34.19-308.29 49.92.84-1.45.24-2.75a.58.58 0 0 1 .29-.77c2.35-1.09 4.14-2.27 6.75-2.91q5-1.24 9.67-3.39c1.58-.73 3.95-1.09 5.74-2.09 2.69-1.49 5.41-1.35 8.27-3.06 3.28-1.97 6.49-1.63 9.69-3.24q5.92-2.97 12.89-4.73c1.4-.35 2.31-1.51 3.7-1.91q7.04-2 13.81-4.73 3.91-1.58 9.05-3.28 3.06-1.01 6.05-2.23c8.06-3.28 16.38-5.56 24.39-9.03 3.05-1.32 6.44-2.07 9.32-3.24 6.82-2.76 14.94-4.73 21.91-8.43q.45-.23.94-.17c2.58.31 4.09-1.37 5.84-1.97 5.45-1.88 11.37-3.36 16.49-5.99 2.72-1.4 6.09-1.48 8.53-2.76q3.65-1.92 6.85-2.83c5.91-1.67 10.61-4.21 16.23-5.9 4.75-1.43 8.81-3.43 13.92-4.9 2.71-.79 5.08-2.3 7.58-3.1q12.69-4.07 25.06-8.99c1.95-.77 5.89-1.52 8.51-2.91 4.05-2.15 8.8-3.1 13.07-4.81q6.77-2.72 9.65-3.71 10.53-3.62 20.96-7.53.08-.03 5.44-1.68c2.66-.82 4.96-2.31 7.4-3.1 7.34-2.37 14.11-5.15 21.75-7.71 3.57-1.2 6.52-2.98 10.28-3.93 4.18-1.05 7.87-2.83 12.33-4.35 5.39-1.82 9.42-3.85 16.37-5.93 3.62-1.09 7.21-3.19 11.19-4.31 5.72-1.6 11.51-3.99 17.05-6.03q4.17-1.53 8.41-2.89c3.58-1.14 7.41-3.32 11.41-4.41 5.43-1.48 10.24-4.16 15.77-5.49q2.57-.61 3.23 1.53.22.72.55.05l.57-1.19q.17-.35.43-.06.11.11.2.2z" fill="#cd6417"/><path d="m689.25 812.32-1.87.23q-.12.01-.09.04l.23.2q.35.3-.1.39l-.99.19q-.72.14-.13.58l.3.22a.28.28 0 0 1 -.15.5c-1.74.1-2.6 1.43-2.38 3.12q.7 5.49.43 11c-.57 11.61-.57 23.12-.47 34.75q0 .3-.21.52l-.34.34q-.59.58.2.82.54.17.94-.2.02-.02.05 0 .14.11.2.22.23.35-.19.33l-6.26-.26q-.52-.02-.95.27-.62.43-1.64.14-.34-.1-.24.24.04.12.17.23-2.74.12-11.07-.11c-129.12-3.56-259.45-17.87-384.28-52.16q-53.79-14.78-105.26-36.24-37.91-15.81-68.89-35.63c-28.97-18.53-34-47.55-9.18-72.72 31.74-32.2 82.85-48.15 125.98-55.15a.39.39 0 0 1 .4.59c-1.63 2.8-2.81 5.55-5.22 7.82-13.09 12.29-26.14 26.62-30.24 44.49-10.36 45.25 50.8 65.28 81.97 76.01 84.57 29.09 173.4 45.67 262.04 56.1q78.38 9.23 157.24 13.13z" fill="#faba23"/><path d="m934.5 615.29 165.22.06-75.94.36q-.46 0-.06.24.37.21.79.06.2-.07.31 0 .3.2-.12.21c-1.53.04-4.45-.11-4.77.08q-.33.19.07.21l13.93.43q.61.02.23.49c-.7.85-.94 1.43-2.04 1.83-8.83 3.16-17.78 7.11-26.82 10.06-4.05 1.31-8.06 2.22-11.77 4.36-2.22 1.28-4.38.73-6.4 1.81-4.17 2.26-8.51 3.13-12.85 4.96-6.48 2.73-12.47 4.45-18.59 7.08q-1.47.63-5.23 1.58c-2.45.62-4.98 2.21-7.08 2.95-5.37 1.87-10.75 3.66-16.02 5.78q-2.18.88-4.85 1.41c-2.86.57-5.19 2.63-8.13 3.39-5.43 1.41-10.52 3.73-15.85 5.46-4.47 1.44-8.52 3.88-13.12 4.77-3.13.61-5.87 2.48-8.62 3.3-7.44 2.19-14.53 5.27-21.97 7.92-7.82 2.79-15.6 5.88-23.57 8.22-2.74.8-4.92 2.45-7.52 3.21-9.99 2.91-19.68 7.82-29.71 10.79-5.04 1.5-9.34 3.43-14.79 5-2.85.82-5.03 2.54-7.73 3.31q-5.49 1.58-10.77 3.7c-5.6 2.25-12.16 4.06-17.95 7.04a1.94 1.9-56.9 0 1 -.95.21q-2.18-.07-3.99.85c-4.88 2.45-10.3 3.62-15.34 5.76q-3.37 1.44-7.16 2.63c-5.77 1.81-11.4 4.34-17.06 6.13q-1.07.34-5.98 2.5c-2.88 1.27-5.58 1.38-8.32 2.69-4.67 2.22-9.42 3.48-14.47 5.64-3.32 1.42-6.89 2.1-10.03 3.43q-7.55 3.2-13.96 4.8-3.94.98-5.75 3.84a.34.34 0 0 1 -.29.16h-.46q-.37 0-.37.37-.01 1.08-1.15 1.59-53.11-5.66-105.75-14.63.2-.03.37-.12.38-.21.04-.49l-.48-.39q-.96-.78.07-.6.13.02.25.01a1.17.12-4.9 0 0 .89-.17c5.45-3.6 10.78-4 15.7-6.57 4.03-2.11 9.14-3.1 12.8-4.57 6.18-2.48 12.46-4.45 18.61-7.04q1.86-.78 4.75-1.63c7.05-2.07 17.03-6.37 26.89-9.47 3.07-.97 5.97-2.7 8.79-3.62q3.56-1.17 7.12-2.33c2.03-.67 5.8-2.9 8.97-3.39 3.62-.55 6.5-2.58 10-3.62q4.06-1.21 6.34-2.18c10.97-4.63 22.98-7.64 33.9-12.98a1.9 1.9 0 0 1 .95-.19c2.77.18 4.34-1.53 6.44-2.18q2.27-.7 4.44-1.62c3.14-1.33 6.48-1.79 9.66-3.28 4.4-2.05 8.79-2.99 13.18-4.8 5.03-2.09 10.39-3.5 15.39-5.78q1.68-.77 4.97-1.59c2.64-.66 5.02-2.27 7.43-3q6.59-1.99 12.94-4.59c4.62-1.88 10.6-3.27 15.64-5.93q.43-.23.92-.23 2.07 0 4.71-1.54 2.42-1.4 10.49-3.73c3.78-1.08 7.99-3.36 12.27-4.58 6.33-1.8 12.42-4.73 18.79-6.64 2.59-.78 5.41-2.79 8.51-3.45 4.34-.93 8.33-3.15 12.63-4.39q2.97-.86 6.51-2.48c3.76-1.71 7.98-2.55 11.5-4.01 5.93-2.45 11.96-4.12 17.78-6.85 2.65-1.24 6.44-1.16 8.1-3.77q.29-.44.79-.3.95.28 1.52-.36.36-.4.9-.41 8.3-.21 16.6-.29c3.75-.03 9.4.72 13.94.07q6.31-.9 10.74-.96z" fill="#ef8c1c"/><path d="m1405.74 933.98-.27-.29q-.13-.13.05-.17l2.73-.5a.69.62-45.9 0 0 .05-1.31q-.45-.02-.53.19-.09.24-.33.16l-.36-.12a.18.17-46.8 0 1 -.01-.33l1.17-.46q.54-.21.37-.76c-1.7-5.62-.86-10.85-.92-15.56q-.13-10.54-.05-21.08.25-32.39.15-64.79 0-.14-.2-1.02-.13-.59.31-1 .53-.49-.18-.61l-2.39-.42a.14.14 0 0 0 -.07.26q.13.05.26.07a.25.25 0 0 1 -.02.5l-.62.09q-.59.08-.44-.49.07-.29.35-.37a.23.23 0 0 0 -.03-.45l-.78-.12q102.96-29.49 205.95-71.22c20.33-8.24 48.19-21.21 57.37-42.04 11.85-26.86-15.36-52.93-35.42-65.84-3.45-2.22-4.85-4.4-4.53-8.39q.08-1.04 1.11-.9c50.16 6.52 148.34 29.07 142.57 99.74-2.7 33.04-27.44 63.46-54.69 80.61-93.68 58.97-202.84 94.33-310.6 116.62z" fill="#ef8c1c"/><path d="m984.5 857.23q2.22-1.35 4.9-1.28a.07.07 0 0 0 .02-.14l-.28-.1q-.55-.18-.26-.68l.65-1.11q.2-.35.07-.72-2.2-6.39-1.23-13.16.17-1.24-.98-4.73-.16-.47-.04-.96c.86-3.62-.8-6.8-.02-10.54a1.33 1.33 0 0 0 -.13-.93q-1.39-2.55-1.55-5.51c-.03-.63.24-1.08.7-1.43a.39.39 0 0 0 -.28-.71q-1.33.17-2.58-.18-.92-.26.04-.27 1.64-.02 3.21-.32.5-.09.76-.45 212.63-7.13 423.04-32.9a1.95 1.95 0 0 1 1.68 3.24q-1.03 1.14-2.96 1.7c-56.46 16.26-113.75 28.8-171.6 38.99q-125.79 22.15-253.16 32.19z" fill="#f4a21f"/><path d="m689.25 812.32c98.06 4.85 198.8 5.16 298.25 1.69q-.26.36-.76.45-1.57.3-3.21.32-.96.01-.04.27 1.25.35 2.58.18a.39.39 0 0 1 .28.71c-.46.35-.73.8-.7 1.43q.16 2.96 1.55 5.51a1.33 1.33 0 0 1 .13.93c-.78 3.74.88 6.92.02 10.54q-.12.49.04.96 1.15 3.49.98 4.73-.97 6.77 1.23 13.16.13.37-.07.72l-.65 1.11q-.29.5.26.68l.28.1a.07.07 0 0 1 -.02.14q-2.68-.07-4.9 1.28-153.7 12.34-307.9 9.21-.23 0-.43-.13-.17-.1-.41-.12-.13-.11-.17-.23-.1-.34.24-.24 1.02.29 1.64-.14.43-.29.95-.27l6.26.26q.42.02.19-.33-.06-.11-.2-.22-.03-.02-.05 0-.4.37-.94.2-.79-.24-.2-.82l.34-.34q.21-.22.21-.52c-.1-11.63-.1-23.14.47-34.75q.27-5.51-.43-11c-.22-1.69.64-3.02 2.38-3.12a.28.28 0 0 0 .15-.5l-.3-.22q-.59-.44.13-.58l.99-.19q.45-.09.1-.39l-.23-.2q-.03-.03.09-.04z" fill="#f7af21"/><path d="m1403.98 825.4.78.12a.23.23 0 0 1 .03.45q-.28.08-.35.37-.15.57.44.49l.62-.09a.25.25 0 0 0 .02-.5q-.13-.02-.26-.07a.14.14 0 0 1 .07-.26l2.39.42q.71.12.18.61-.44.41-.31 1 .2.88.2 1.02.1 32.4-.15 64.79-.08 10.54.05 21.08c.06 4.71-.78 9.94.92 15.56q.17.55-.37.76l-1.17.46a.18.17-46.8 0 0 .01.33l.36.12q.24.08.33-.16.08-.21.53-.19a.69.62-45.9 0 1 -.05 1.31l-2.73.5q-.18.04-.05.17l.27.29c-85.78 18.87-174.45 29.9-262 36.17q-.01-.13 0-.27.04-.29.33-.32c2.26-.24 3.23-2.01 2.11-4.04a1.97 1.96 30.8 0 1 -.24-.94c.18-22.28.84-45.08-.59-67.31q-.3-4.72.74-9.42a2.11 2.11 0 0 0 -.04-1.03q-.56-1.88.06-3.77.17-.5-.33-.65-.93-.3-1.94-.14a.05.05 0 0 1 -.05-.07l.16-.3q.13-.25-.15-.33-.4-.11-.58-.33 132.26-19.38 260.76-55.83z" fill="#f2971d"/><path d="m685.75 904.04q.38.46.1.95-.15.26.16.26h1.23a.58.58 0 0 1 .56.71q-.21.94-1.13 1.32a.46.46 0 0 0 -.25.62l.86 1.96q.2.45-.16.78-1.25 1.14-.3 2.88a.94.93-57.3 0 1 .12.56c-.58 5.73.05 11.47-.48 17.08-.17 1.77.54 3.33.36 4.98-.89 8.31-.43 16.91-.49 25.27q0 .25.24.53.09.1.25.17.29.13.03.3l-3.65 2.43q-4.22-.29-8.52-.69-117.8-10.95-234.18-32.17c-102.7-18.72-206.22-44.33-302.5-83.23-2.08-.83-2.88-2.42-2.25-4.52a1.17 1.16-5.6 0 1 .6-.72q1.28-.63 2.91-.33c180.5 32.29 363.18 54.2 546.49 60.86z" fill="#faba23"/><path d="m1143.22 881.23q.18.22.58.33.28.08.15.33l-.16.3a.05.05 0 0 0 .05.07q1.01-.16 1.94.14.5.15.33.65-.62 1.89-.06 3.77a2.11 2.11 0 0 1 .04 1.03q-1.04 4.7-.74 9.42c1.43 22.23.77 45.03.59 67.31a1.97 1.96 30.8 0 0 .24.94c1.12 2.03.15 3.8-2.11 4.04q-.29.03-.33.32-.01.14 0 .27-130.08 9.39-260.49 6.1l-4.09-1.64q-.46-.19-.11-.54l.35-.34a.46.46 0 0 0 -.35-.79l-8.57.39q-.16.01-.17.17 0 .15-.03.28a.15.15 0 0 1 -.29-.04q.01-.15.01-.29-.02-.46-.46-.6c-1.95-.62-1.99-3.27-.49-4.3q1.32-.92-.11-1.78-1.26-.76-1.48-2.19a.93.93 0 0 1 .56-1.01q1.89-.79 1.98-2.8.02-.35.36-.31l.82.09a1.01 1.01 0 0 0 .64-1.86c-3.43-2.13-2.24-5.91-3.97-9.18a.55.54-23 0 1 .32-.78l1.63-.51q.19-.06.2-.25 0-.14.01-.3a.25.25 0 0 0 -.22-.27l-1.2-.18q-.61-.09-.36-.65l1.09-2.52q.23-.53-.13-.98-2.26-2.86-.43-6.08a.94.94 0 0 0 0-.94q-2.28-3.88 1.6-5.44 1.4-.56 1.69-2.03c.51-2.5-1.04-5.06-1.01-7.54q.06-6-.13-11.97-.04-1.31.12-1.63a1.12 1.12 0 0 0 -1.09-1.63c-2.72.24-7.15 1.16-9.54-.26q-.29-.17.03-.27.36-.1.3-.34 142.04-3.35 282.49-23.71z" fill="#f4a21f"/><path d="m685.75 904.04q87.5 3.19 174.98.9.06.24-.3.34-.32.1-.03.27c2.39 1.42 6.82.5 9.54.26a1.12 1.12 0 0 1 1.09 1.63q-.16.32-.12 1.63.19 5.97.13 11.97c-.03 2.48 1.52 5.04 1.01 7.54q-.29 1.47-1.69 2.03-3.88 1.56-1.6 5.44a.94.94 0 0 1 0 .94q-1.83 3.22.43 6.08.36.45.13.98l-1.09 2.52q-.25.56.36.65l1.2.18a.25.25 0 0 1 .22.27q-.01.16-.01.3-.01.19-.2.25l-1.63.51a.55.54-23 0 0 -.32.78c1.73 3.27.54 7.05 3.97 9.18a1.01 1.01 0 0 1 -.64 1.86l-.82-.09q-.34-.04-.36.31-.09 2.01-1.98 2.8a.93.93 0 0 0 -.56 1.01q.22 1.43 1.48 2.19 1.43.86.11 1.78c-1.5 1.03-1.46 3.68.49 4.3q.44.14.46.6 0 .14-.01.29a.15.15 0 0 0 .29.04q.03-.13.03-.28.01-.16.17-.17l8.57-.39a.46.46 0 0 1 .35.79l-.35.34q-.35.35.11.54l4.09 1.64q-100.18-2.21-200.05-11.41l3.65-2.43q.26-.17-.03-.3-.16-.07-.25-.17-.24-.28-.24-.53c.06-8.36-.4-16.96.49-25.27.18-1.65-.53-3.21-.36-4.98.53-5.61-.1-11.35.48-17.08a.94.93-57.3 0 0 -.12-.56q-.95-1.74.3-2.88.36-.33.16-.78l-.86-1.96a.46.46 0 0 1 .25-.62q.92-.38 1.13-1.32a.58.58 0 0 0 -.56-.71h-1.23q-.31 0-.16-.26.28-.49-.1-.95z" fill="#f7af21"/><path d="m628.76 1018.6q-.5.35.49.47a.14.14 0 0 1 .06.26l-.3.18q-.39.23-.07.55l.23.24a.34.33 63.9 0 1 -.19.57c-3.27.38-2.78 4.27-2.81 6.57q-.35 21.41 0 42.83c.09 5.22-.32 9.5 1.19 14.68a1.45 1.39 46.2 0 1 0 .81q-1.21 4.36-.09 8.73.13.49-.15.91-1.13 1.69-.88 3.65.07.54-.45.69-.81.23-1.35.84c-97.97-14.88-195.77-40.23-287.03-79.2q-29.25-12.49-56.88-28.16-9.87-5.61-14.57-10.23c-7.86-7.73-15.86-20.67-14.51-32.22.34-2.97 2.4-5.43 5.54-4.5 122.31 36.21 246.15 58.86 371.77 72.33z" fill="#faba23"/><path d="m1282.01 1087.07.03-1.95q0-.52-.51-.58c-3.87-.42-3.54-5.13-3.54-8.79q-.05-33.1.08-66.11 0-1.01.94-.62 1.93.79 3-.87.34-.51-.26-.63l-.52-.1q77.93-11.07 154.5-28.99 45.34-10.62 86.96-24.73c15.44-5.23 19.05 5.27 13.65 17.38-6.38 14.3-18.72 26.67-31.19 35.8-24.04 17.59-51.55 30.44-79.85 41.15-46.34 17.54-94.65 29.93-143.29 39.04z" fill="#f2971d"/><path d="m1281.23 1007.42.52.1q.6.12.26.63-1.07 1.66-3 .87-.94-.39-.94.62-.13 33.01-.08 66.11c0 3.66-.33 8.37 3.54 8.79q.51.06.51.58l-.03 1.95c-63.9 12.27-128.7 19.94-193.58 24.79q-120.3 8.98-240.93 7.41-2.88-.03-5.75-.01 4.34-.94 8.6-.21.32.05.54-.2.12-.13.25-.23.24-.18.62-.18 3.82-.05 7.21-.25 2.18-.13 2.1-2.32c-1.03-26.18-.33-52.71-.33-78.93a.74.73 71.2 0 1 .28-.58q.42-.33.07-.64a.43.42-17.7 0 1 .38-.73q.24.06.47-.05.66-.32-.07-.38-.67-.06-1.23-.46-.51-.35.11-.35h.96a.23.23 0 0 0 .04-.46q-.53-.09-.5-.45c139.65 1.64 281.7-6.06 419.98-25.42z" fill="#f4a21f"/><path d="m628.76 1018.6q115.91 12.54 232.49 14.24-.03.36.5.45a.23.23 0 0 1 -.04.46h-.96q-.62 0-.11.35.56.4 1.23.46.73.06.07.38-.23.11-.47.05a.43.42-17.7 0 0 -.38.73q.35.31-.07.64a.74.73 71.2 0 0 -.28.58c0 26.22-.7 52.75.33 78.93q.08 2.19-2.1 2.32-3.39.2-7.21.25-.38 0-.62.18-.13.1-.25.23-.22.25-.54.2-4.26-.73-8.6.21-108.46-1.96-215.67-18.4-.82-.13-1.64-.28.54-.61 1.35-.84.52-.15.45-.69-.25-1.96.88-3.65.28-.42.15-.91-1.12-4.37.09-8.73a1.45 1.39 46.2 0 0 0-.81c-1.51-5.18-1.1-9.46-1.19-14.68q-.35-21.42 0-42.83c.03-2.3-.46-6.19 2.81-6.57a.34.33 63.9 0 0 .19-.57l-.23-.24q-.32-.32.07-.55l.3-.18a.14.14 0 0 0 -.06-.26q-.99-.12-.49-.47z" fill="#f7af21"/></svg>