<svg height="36.095291" viewBox="0 0 43.495099 9.5502127" width="164.39093" xmlns="http://www.w3.org/2000/svg" xmlns:xlink="http://www.w3.org/1999/xlink"><clipPath id="a"><path d="m24.62 29.48h145.959v38.92h-145.959z"/></clipPath><g clip-path="url(#a)" transform="matrix(.35277777 0 0 -.35277777 -12.298362 22.09742)"><path d="m0 0c0 .261.056.525.17.795.112.269.277.516.495.742.216.226.491.412.821.56.329.148.711.222 1.146.222.433 0 .807-.074 1.12-.222s.573-.334.782-.56c.208-.226.364-.473.468-.742.105-.27.156-.534.156-.795zm6.905-3.699c-.279-.209-.722-.456-1.329-.743-.609-.286-1.398-.43-2.371-.43-.991 0-1.768.248-2.332.743s-.856 1.072-.873 1.732h8.701v.625c0 1.025-.129 1.968-.39 2.827-.26.86-.647 1.598-1.159 2.215-.512.616-1.143 1.098-1.889 1.445-.747.348-1.615.521-2.605.521s-1.876-.178-2.658-.534c-.781-.356-1.441-.829-1.98-1.419-.538-.591-.95-1.281-1.237-2.072-.286-.79-.43-1.611-.43-2.461 0-.973.152-1.863.456-2.671.304-.807.747-1.498 1.329-2.071.581-.573 1.29-1.021 2.123-1.342.834-.321 1.771-.482 2.814-.482.781 0 1.475.075 2.083.222.609.148 1.134.317 1.577.508s.803.386 1.08.586c.279.2.487.343.626.43zm-41.524-.443c-.243-.174-.503-.326-.781-.456s-.608-.196-.99-.196c-.504 0-.873.161-1.107.483-.235.321-.352.777-.352 1.367v4.82h3.153v2.944h-3.153v3.274h-3.751v-3.274h-1.934v-2.944h1.934v-4.611c0-.765.078-1.459.234-2.085.157-.625.417-1.159.782-1.602.364-.443.842-.79 1.432-1.042.591-.251 1.321-.378 2.189-.378 1.389 0 2.675.469 3.856 1.407zm32.478 13.312c-.556.469-1.172.799-1.849.99-.678.191-1.347.287-2.007.287-.624 0-1.237-.1-1.836-.3s-1.133-.504-1.603-.912c-.469-.408-.846-.924-1.132-1.55-.287-.625-.431-1.372-.431-2.24v-.625h-1.979v-2.944h1.979v-9.275h3.725v9.275h2.893v2.944h-2.893v.677c0 .608.157 1.077.47 1.407.312.329.729.495 1.25.495.33 0 .651-.052.964-.156.313-.105.6-.253.86-.443zm-16.487-16.569h3.751v12.219h-1.876-1.875zm-13.075 0h11.43v3.218h-7.496v14.159h-3.934zm-21.43 7.399c0 .261.056.525.169.795.113.269.278.516.495.742s.491.412.821.56.712.222 1.146.222.808-.074 1.12-.222c.313-.148.574-.334.782-.56s.365-.473.469-.742c.104-.27.156-.534.156-.795zm6.904-3.699c-.278-.209-.721-.456-1.329-.743-.608-.286-1.398-.43-2.371-.43-.99 0-1.767.248-2.331.743-.565.495-.856 1.072-.873 1.732h8.701v.625c0 1.025-.13 1.968-.39 2.827-.261.86-.648 1.598-1.16 2.215-.512.616-1.142 1.098-1.889 1.445-.746.348-1.615.521-2.605.521s-1.875-.178-2.657-.534c-.781-.356-1.442-.829-1.98-1.419-.539-.591-.951-1.281-1.237-2.072-.287-.79-.43-1.611-.43-2.461 0-.973.151-1.863.456-2.671.303-.807.746-1.498 1.328-2.071s1.29-1.021 2.123-1.342c.834-.321 1.772-.482 2.814-.482.782 0 1.476.075 2.084.222.608.148 1.134.317 1.577.508.442.191.803.386 1.08.586.278.2.487.343.626.43zm-30.195-3.7h3.751l.443 11.281 3.804-6.696h2.032l3.595 6.774.495-11.359h3.934l-.808 17.377h-3.752l-4.428-8.154-4.533 8.154h-3.726zm59.671 13.616c-1.158 0-2.114.956-2.114 2.115s.956 2.115 2.114 2.115c1.188 0 2.115-.927 2.115-2.115 0-1.159-.956-2.115-2.115-2.115" fill="#231f20" transform="translate(149.0787 47.5818)"/><path d="m0 0c2.951-3.907 4.702-8.773 4.702-14.051 0-1.273-.103-2.522-.3-3.741h8.544c.743 0 1.345.604 1.345 1.349v23.621c0 .88-.829 1.531-1.678 1.307-5.102-1.347-9.518-4.387-12.613-8.485" fill="#99d538" transform="translate(49.5279 53.7339)"/><path d="m0 0c-.196 1.218-.3 2.467-.3 3.741 0 5.277 1.752 10.144 4.702 14.051-3.095 4.098-7.511 7.138-12.613 8.484-.849.224-1.678-.426-1.678-1.306v-23.622c0-.744.603-1.348 1.346-1.348z" fill="#239de0" transform="translate(45.1255 35.9424)"/><path d="m0 0c-2.951-3.907-4.702-8.773-4.702-14.051 0-1.273.103-2.522.3-3.741h8.804c.197 1.219.3 2.468.3 3.741 0 5.278-1.751 10.144-4.702 14.051" fill="#1563a9" transform="translate(49.5279 53.7339)"/></g></svg>