<svg viewBox="0 0 242.35 47.04" xmlns="http://www.w3.org/2000/svg" xmlns:xlink="http://www.w3.org/1999/xlink"><clipPath id="a"><path d="m0 0h242.35v47.04h-242.35z"/></clipPath><path d="m0 23.51 25.72 14.85 25.72-14.85-25.72-14.85z" fill="#f58220"/><g clip-path="url(#a)"><path d="m0 47.04h4.98c4.69 0 7.11-.9 14.75-5.22l6-3.46-25.73-14.85z" fill="#f6c65c"/><path d="m23.35 7.29c-10.61-6.11-13.01-7.29-18.37-7.29h-4.98v23.51l25.72-14.85z" fill="#e11f8f"/><path d="m31.86 41.9c7.52 4.25 9.94 5.14 14.6 5.14h4.98s0-23.53 0-23.53l-25.72 14.85z" fill="#e11f8f"/><path d="m46.46 0c-5.45 0-7.84 1.22-18.9 7.59l-1.84 1.06 25.72 14.85v-23.5z" fill="#f6c65c"/><g fill="#5e7775"><path d="m81.56 33.87c-5.32 0-9.53-4.62-9.53-10.36 0-6.11 4.12-9.86 9.37-9.86 2.56 0 6.07.99 6.07 3.14v1.65h4.91v-3.26c0-4.99-7.34-6.56-11.1-6.56-8.5 0-14.85 6.44-14.85 14.9s6.11 15.39 15.06 15.39c7.55 0 11.8-5.03 11.8-5.03l-2.85-3.88s-3.34 3.88-8.87 3.88"/><path d="m100.69 33.99c-.58 0-.91-.33-.91-.91v-21.16c0-1.94-.87-2.81-2.8-2.81h-2.44v26.49c0 1.98.83 2.81 2.81 2.81h4.95v-4.42z"/><path d="m113.28 16.87c-6.31 0-10.69 4.54-10.69 11.02 0 5.98 4.33 11.02 11.31 11.02 5.24 0 8.46-3.18 8.46-3.18l-2.19-3.63s-2.52 2.35-5.9 2.35c-3.18 0-5.9-1.94-6.31-5.65h14.53s.12-1.32.12-1.94c0-5.57-3.3-9.98-9.33-9.98m-5.16 8.29c.58-2.64 2.47-4.25 5.16-4.25 2.15 0 3.88 1.73 3.96 4.25z"/><path d="m132.56 16.87c-2.19 0-7.71.41-7.71 4.33v2.23h4.87v-1.11c0-1.16 1.86-1.4 2.81-1.4 2.68 0 3.88 1.11 3.88 4.13v.16h-.66c-3.43 0-12.5.54-12.5 7.14 0 4.21 3.43 6.56 7.18 6.56 4.74 0 6.35-3.71 6.35-3.71h.08s-.04.37-.04.91c0 1.24.74 2.31 2.68 2.31h2.15v-13.16c0-4.7-2.06-8.38-9.08-8.38m3.92 12.42c0 2.56-1.98 5.53-4.79 5.53-2.14 0-3.18-1.32-3.18-2.72 0-2.93 4.33-3.3 7.06-3.3h.91v.5z"/><path d="m187.63 33.09v-12.92c0-1.94-.82-2.8-2.76-2.8h-2.43v18.24c0 1.98.82 2.81 2.76 2.81h4.99v-4.42h-1.65c-.58 0-.91-.33-.91-.91"/><path d="m200.29 16.87c-6.31 0-10.69 4.54-10.69 11.02 0 5.98 4.33 11.02 11.31 11.02 5.24 0 8.46-3.18 8.46-3.18l-2.19-3.63s-2.52 2.35-5.9 2.35c-3.18 0-5.9-1.94-6.31-5.65h14.52s.12-1.32.12-1.94c0-5.57-3.3-9.98-9.33-9.98m-5.16 8.29c.58-2.64 2.48-4.25 5.16-4.25 2.15 0 3.88 1.73 3.96 4.25z"/><path d="m238.82 17.37c-1.73 0-2.56.54-2.97 2.15l-3.06 11.68c-.29 1.11-.41 2.23-.41 2.23h-.08s-.12-1.11-.45-2.23l-3.92-13.74h-3.2c-1.08.19-1.67.78-2 2.04l-3.3 11.71c-.33 1.11-.5 2.23-.5 2.23h-.08s-.12-1.11-.41-2.23l-3.09-11.68c-.41-1.61-1.24-2.15-2.97-2.15h-3.48l6.65 21.04h5.94l3.55-12.01c.33-1.11.54-2.27.54-2.27h.08s.16 1.15.5 2.27l3.59 12.01h5.9l6.71-21.04h-3.53z"/><path d="m171.77 37.06 10.19-27.95h-3.34c-2.06 0-2.77.54-3.43 2.39l-5.61 16.34c-.58 1.65-1.11 4.29-1.11 4.29h-.08s-.54-2.64-1.11-4.29l-5.61-16.34c-.66-1.86-1.4-2.39-3.47-2.39h-3.37l10.75 29.3h3.51c1.4 0 2.2-.36 2.68-1.35"/><path d="m188.53 12.14c0 1.74-1.41 3.16-3.16 3.16s-3.16-1.41-3.16-3.16 1.42-3.16 3.16-3.16 3.16 1.41 3.16 3.16"/><path d="m155.04 17.08c-3.22 0-5.73 2.39-6.68 5.41h-.08s.08-.54.08-1.32v-1.24c0-1.77-.95-2.56-2.81-2.56h-2.23v21.04h2.52c1.94 0 2.68-1.07 2.68-2.31v-6.03c0-1.24.16-2.39.45-3.42.95-3.14 3.51-4.41 5.74-4.41.74 0 1.28.08 1.28.08v-5.16s-.49-.08-.95-.08"/></g></g></svg>