<svg viewBox="0 0 600 201" xmlns="http://www.w3.org/2000/svg"><path d="m476.31 0h4.22l.02 26.03a.48.47 89.4 0 0 .48.48l30.54-.04a.36.36 0 0 1 .36.33c.3 4.77.69 10.92-2.2 14.82-5.23 7.04-20.25 4.92-28.43 4.79a.78.78 0 0 0 -.79.78q-.02 17.17-.06 34.31-.02 4.85 1.32 9.49c3.28 11.43 21.43 8.4 29.42 4.88a.58.58 0 0 1 .82.52c.02 11.4-.65 20.4-14.28 22.1-21.7 2.7-39.4-7.25-39.56-30.99q-.2-31.87-.15-63.74.03-14.13 11.38-21.32c2-1.27 4.62-1.48 6.91-2.44z" fill="#739600"/><path d="m520.74 0h8.55c2.51.85 5.38.85 7.49 2.13q6.36 3.82 6.43 11.87.09 10.85.02 21.51a.28.27 62.5 0 0 .5.16c11.13-15.86 38.12-14.47 48.97 1.15q6.45 9.28 7.3 22.29v57.72c-15.07 1.49-22.41-2.23-22.47-18.07q-.07-17.63-.02-35.26.01-1.83-.84-5.66c-3.26-14.77-22.6-18.56-30.4-5.29-2.31 3.93-3 8.77-3 13.83q-.01 24.95-.03 49.9 0 .48-.48.53c-14.47 1.44-21.95-1.97-21.97-17.37q-.07-49.72-.05-99.44z" fill="#739600"/><path d="m0 65.64v-9.41c1.57-26.79 17.41-53.41 46.93-55.3 4.07-.26 7.25-.93 11.57-.3 2.71.4 5.94.1 8.36.77q32.38 8.9 39.21 41.84c6.88 33.2-8.34 70.63-45.82 75.29-33.65 4.19-58.29-20.41-60.25-52.89zm24.54 4.4c2.84 16.8 10.43 28.78 29.25 28.9 29.09.17 33.23-31.53 28.55-52.97-3.48-16-14.18-26.38-31.43-25.3-24.65 1.55-29.65 29.99-26.37 49.37z" fill="#5d4f4b"/><path d="m291.57 100c-.4-30.61-.08-61.04-.35-91.84q-.01-1.25 1.18-1.63c15.2-4.91 30.58-7.03 46.92-5.46 21.4 2.05 33.83 18.23 32.52 38.93-1.93 30.47-30.58 43.43-57.23 33.07q-.61-.24-.61.42v42.54q0 .84-.83.9c-13.76.95-21.41-2.01-21.6-16.93zm52.99-49.19c4.4-5.99 4.63-15.26 1.83-21.82-4.78-11.2-22.53-9.43-31.88-6.68a.72.71 81.9 0 0 -.51.69v31.49q0 .49.47.6c8.88 2.15 23.87 4.2 30.09-4.28z" fill="#739600"/><path d="m115.05 62.54c1.02-50.87 79.64-51.87 79.68 1.96q.02 25.88.02 51.73a.77.76 88.8 0 1 -.73.77c-13.01.51-21.77-2.64-21.77-17.22q0-15.52.01-31.03c.01-12.68-3.14-24.18-18.25-24.28-10.65-.07-16.4 9.27-16.44 19.05q-.1 26.37-.07 52.78 0 .48-.47.53c-8.06.83-17.23-.34-20.64-8.12q-1.35-3.07-1.38-10.73-.12-27.55.04-35.44z" fill="#5d4f4b"/><path d="m226.81 81.44q-1.71-.05-1.15 1.57 3.18 9.08 10.45 13.31c11.4 6.65 32.63 4.06 42.53-5.01a.44.44 0 0 1 .73.26c3.65 21.83-14.82 27.58-32.12 27.35-24.62-.32-43.41-18.53-44.93-43.03-.98-15.65 4.47-32.65 17.12-42.48 22.94-17.82 59.68-8.77 63.31 23.07q1.94 17.03-14.5 21.97c-12.74 3.84-28.46 3.36-41.44 2.99zm28.76-35.51q-2.45-1.46-5.25-2.02c-14.44-2.89-25.11 6.52-24.74 20.99q.02.44.46.47 14.16.75 28.12-1.19c10.9-1.52 8.47-14.03 1.41-18.25z" fill="#5d4f4b"/><g fill="#739600"><path d="m426.8 60.82c-.75-9.84-2.51-15.21-13.3-16.7-12.24-1.69-26.41.77-35.3 10.02a.5.5 0 0 1 -.86-.27c-4.24-26.24 24.41-31.82 43.48-28.42 31.46 5.63 28.67 36.77 28.4 60.8-.28 25.54-22.53 35-44.73 32.19-16.47-2.09-32.07-11.44-30.86-30.24 1.67-26.03 33.73-27.32 52.46-26.64a.69.69 0 0 0 .71-.74zm-.72 17.11c-7.97-.71-32.75-1.62-29.09 13.48 2.16 8.92 13.44 10.06 20.67 8.39 9.86-2.29 9.69-13.02 8.91-21.37q-.04-.46-.49-.5z"/><path d="m310.69 152.66q.16-.52-.45-.56c-31.8-2.54-71.23-1.04-99.99.38q-82.68 4.06-164.37 15.22a.97.97 0 0 1 -1.07-1.21c1.13-4.23 4.63-5.79 9-6.69q54.15-11.17 114.19-16.84c126.35-11.92 256.35-7.78 381.02 17.37 2.93.59 8.2 2.47 7.38 6.45a.58.57-82.8 0 1 -.58.46c-59.78-2.25-120.46-2.78-179.39-.27q-122.23 5.21-241.12 33.82a.61.6-12.7 0 1 -.73-.46c-.96-4.5 4.37-6.81 7.75-7.98q12.03-4.15 24.26-7.68 70.94-20.45 143.82-31.77a.36.34-84.2 0 0 .28-.24z"/></g></svg>