<svg fill="none" height="23" viewBox="0 0 91 23" width="91" xmlns="http://www.w3.org/2000/svg"><path d="m26.8751 10.7262c-.4334.0084-.789-.3445-.7751-.78062.0583-1.74744.7973-5.95351 6.2786-8.23712.1694-.07501 1.614-.68342 3.7337-.69175.3084-.036116 1.328-.069453 3.4032.53896.0806.025 6.1813 2.03913 6.6897 8.16766.0362.44177-.3083.82237-.7528.82237-.3917 0-.7279-.2945-.7612-.68624-.414-5.10896-5.4007-6.77861-5.6229-6.85084-1.967-.57507-2.7893-.48061-2.7976-.48061l-.0639.01111-.0472-.00278c-1.9114 0-3.156.5584-3.1671.56396l-.0222.01111c-4.6478 1.93357-5.3062 5.40899-5.3618 6.89809-.0139.3945-.3361.7112-.7334.7167z" fill="#f2f0ef"/><path d="m26.8751 10.7262c-.4334.0084-.789-.3445-.7751-.78062.0583-1.74744.7973-5.95351 6.2786-8.23712.1694-.07501 1.614-.68342 3.7337-.69175.3084-.036116 1.328-.069453 3.4032.53896.0806.025 6.1813 2.03913 6.6897 8.16766.0362.44177-.3111.82237-.7528.82237-.3917 0-.7279-.2945-.7585-.68624-.4139-5.10896-5.4006-6.77861-5.6229-6.85084-1.9669-.57507-2.7892-.48061-2.7975-.48061l-.0639.01111-.0473-.00278c-1.9113 0-3.1559.5584-3.167.56396l-.0222.01111c-4.6478 1.93357-5.3062 5.40899-5.3618 6.89809-.0167.3945-.3389.7112-.7362.7167z" fill="#ffc864" stroke="#ffc864" stroke-miterlimit="10" stroke-width="1.31892"/><path d="m36.0317 8.00373c-.5696.00834-1.0307.31116-1.0307.88067v9.6317s.0305 4.07 4.1394 4.07c0 0 3.1115.1278 4.006-3.0448 0 0 .2306-1.2946-1.5141-.964 0 0-.4139.2389-.5806.6278 0 0-.4445 1.3057-1.9113 1.3057 0 0-1.7697.0917-2.0336-1.903v-9.70673c0-.58063-.4751-.90289-1.0557-.89734z" fill="#ffc864"/><g fill="#000"><path d="m0 8.87036c0-.58618.505615-1.06958 1.0918-1.06958.58618 0 1.08902.4834 1.08902 1.06958s-.50562 1.06958-1.08902 1.06958c-.583406 0-1.0918-.4834-1.0918-1.06958zm2.16138 4.07824v8.4983c0 .6056-.4834 1.089-1.06958 1.089-.586185 0-1.0695745-.4862-1.0695745-1.089v-8.4983c0-.6056.4833895-1.0918 1.0695745-1.0918.58618 0 1.06958.4862 1.06958 1.0918z"/><path d="m13.0821 9.07316v12.39594c0 .5862-.5056 1.0696-1.0918 1.0696s-1.0696-.4834-1.0696-1.0696v-1.089c-.1417.9084-1.39182 2.1808-3.3115 2.1808-2.24195 0-4.92561-1.7363-4.92561-5.3895 0-3.5921 2.70589-5.3701 4.92561-5.3701 1.49462 0 2.7864.7667 3.3115 1.9391v-.8084c0-.0612 0-.1417.0195-.2028v-3.65326c0-.58619.4834-1.06958 1.0501-1.06958.589-.00278 1.0918.48061 1.0918 1.0668zm-2.0586 8.09544c0-2.5225-1.69743-3.5338-3.06982-3.5338-1.4724 0-3.12816 1.1502-3.12816 3.5338 0 2.4031 1.65576 3.5532 3.12816 3.5532 1.37517 0 3.06982-1.0501 3.06982-3.5532z"/><path d="m23.8834 16.8242c0 .8279-.4639 1.1501-1.3335 1.1501l-6.7647-.0194c.2223 1.878 1.6947 2.8059 3.3116 2.8059.8278 0 1.3918-.2028 2.0196-.5862.3445-.1806.5668-.3223.8474-.3223.4639 0 .7473.3223.7473.7668 0 .2639-.1.5445-.5445.9085-.7668.625-1.878.989-3.1504.989-2.6253 0-5.4312-1.6752-5.4312-5.3285 0-3.6337 2.9281-5.3895 5.2284-5.3895 2.3058 0 5.07 1.8169 5.07 5.0256zm-8.0954-.4028h6.0174c-.1806-1.9169-1.6363-2.767-2.9892-2.767-1.3308 0-2.8448.8501-3.0282 2.767z"/><path d="m32.0203 13.7376v-.8084c0-.5862.4834-1.0696 1.0696-1.0696s1.0918.4834 1.0918 1.0696v8.5399c0 .5862-.5056 1.0696-1.0918 1.0696s-1.0696-.4834-1.0696-1.0696v-1.089c-.1417.9085-1.3918 2.1808-3.3115 2.1808-2.2419 0-4.9256-1.7363-4.9256-5.3895 0-3.5921 2.7059-5.3701 4.9256-5.3701 1.4946-.0028 2.7865.764 3.3115 1.9363zm.1 3.431c0-2.5225-1.6974-3.5338-3.0698-3.5338-1.4724 0-3.1281 1.1502-3.1281 3.5338 0 2.4031 1.6557 3.5532 3.1281 3.5532 1.3752 0 3.0698-1.0501 3.0698-3.5532z"/><path d="m54.8812 20.1774c0 .4834-.3417.7473-.5639.9696-.8668.9084-1.9975 1.3723-3.3921 1.3723-2.4031 0-5.309-1.7557-5.309-5.3506 0-3.6143 2.9059-5.3701 5.309-5.3701 1.3918 0 2.5225.4639 3.3921 1.3724.2222.2222.5639.4834.5639.9695 0 .5057-.425.8279-.8667.8279-.4029 0-.7057-.2222-.8668-.3834-.5445-.6473-1.3918-.9279-2.1392-.9279-1.6946 0-3.2698 1.2113-3.2698 3.5116 0 2.2808 1.5752 3.4921 3.2698 3.4921.7474 0 1.5947-.2834 2.1392-.9279.1611-.1611.4639-.3834.8668-.3834.4445 0 .8667.3223.8667.8279z"/><path d="m65.4216 17.1881c0 3.6144-3.0087 5.3701-5.3284 5.3701-2.3225 0-5.309-1.7557-5.309-5.3701 0-3.5921 2.9892-5.3895 5.309-5.3895 2.3197 0 5.3284 1.7974 5.3284 5.3895zm-8.5205 0c0 2.2809 1.6363 3.5116 3.1893 3.5116 1.5752 0 3.2087-1.2307 3.2087-3.5116 0-2.3003-1.6363-3.5337-3.2087-3.5337-1.553 0-3.1893 1.2334-3.1893 3.5337z"/><path d="m74.5262 12.8292c0 .2028-.0611.3445-.1223.4834l-3.7143 8.3371c-.2417.5056-.5445.8084-1.0696.8084-.525 0-.8279-.3028-1.0696-.8084l-3.7143-8.3371c-.0611-.1417-.1222-.2834-.1222-.4834 0-.5251.425-.9696.989-.9696.4028 0 .7862.2223 1.0084.7279l2.9087 6.8453 2.9059-6.8453c.2028-.5056.6057-.7279 1.0085-.7279.5695 0 .9918.4445.9918.9696z"/><path d="m84.1159 16.8242c0 .8279-.464 1.1501-1.3335 1.1501l-6.7648-.0194c.2223 1.878 1.6947 2.8059 3.3116 2.8059.8278 0 1.3918-.2028 2.0197-.5862.3417-.1806.5667-.3223.8473-.3223.4639 0 .7473.3223.7473.7668 0 .2639-.1.5445-.5445.9085-.7668.625-1.878.989-3.1504.989-2.6253 0-5.4312-1.6752-5.4312-5.3285 0-3.6337 2.9281-5.3895 5.2284-5.3895 2.3058 0 5.0701 1.8169 5.0701 5.0256zm-8.0955-.4028h6.0174c-.1805-1.9169-1.6363-2.767-2.9892-2.767-1.3307 0-2.8448.8501-3.0282 2.767z"/><path d="m91.0005 12.807c0 .6056-.464 1.0084-1.3724 1.0084-1.7752 0-2.9282 1.3724-3.0671 2.442v5.1867c0 .5862-.4834 1.0696-1.0695 1.0696-.5862 0-1.0696-.4834-1.0696-1.0696v-8.4982c0-.6056.4834-1.0918 1.0696-1.0918.5861 0 1.0695.4834 1.0695 1.0918v1.3335c.1-.7057 1.3724-2.4642 3.3504-2.4642.7057.0028 1.0891.4473 1.0891.9918z"/></g></svg>