<svg fill="none" height="75" viewBox="0 0 75 75" width="75" xmlns="http://www.w3.org/2000/svg"><path d="m63.7125 12.3678c-7.7073-3.3212-13.6894-7.06741-17.5122-9.8947-2.3953-1.771566-5.6092-2.233724-8.3651-1.10191-7.219 2.96476-14.5399 4.57286-19.55 5.3129-2.6065.385-4.9106 2.0076-6.0145 4.40001-3.79225 8.2184-7.33776 14.088-9.90683 17.748-1.740767 2.4799-2.17024 5.7832-1.03078 8.5907 2.69112 6.6305 4.23689 13.7661 4.99563 18.831.41272 2.7551 2.24312 5.123 4.80648 6.2139 7.2572 3.0884 13.5278 7.1052 17.6186 10.1457 2.2865 1.6996 5.3317 2.1023 7.9837 1.0613 6.8532-2.6903 14.0362-4.1695 19.1406-4.8716 2.8946-.3981 5.3772-2.3536 6.5149-5.0448 2.8395-6.7166 7.0239-13.1432 10.235-17.454 1.6823-2.2585 2.0412-5.2678.9839-7.878-2.903-7.1661-4.4804-14.6526-5.2099-19.8443-.3844-2.7358-2.1523-5.1209-4.6895-6.2142z" fill="#ffc864"/></svg>